<?xml version="1.0" encoding="UTF-8" standalone="no"?>
<!DOCTYPE svg PUBLIC "-//W3C//DTD SVG 1.1//EN" "http://www.w3.org/Graphics/SVG/1.1/DTD/svg11.dtd">
<svg width="100%" height="100%" viewBox="0 0 744 370" version="1.1" xmlns="http://www.w3.org/2000/svg" xmlns:xlink="http://www.w3.org/1999/xlink" xml:space="preserve" xmlns:serif="http://www.serif.com/" style="fill-rule:evenodd;clip-rule:evenodd;stroke-linejoin:round;stroke-miterlimit:2;">
    <g transform="matrix(1,0,0,1,-10993.2,-5550.68)">
        <g transform="matrix(1,0,0,1,2613.97,-254.191)">
            <g transform="matrix(3.90901,0,0,3.90901,-25457.1,-16904.6)">
                <g transform="matrix(15.1781,0,0,15.1781,8682.56,5820.32)">
                    <path d="M0.618,-0.193C0.614,-0.165 0.606,-0.139 0.592,-0.114C0.578,-0.089 0.559,-0.067 0.536,-0.048C0.513,-0.029 0.487,-0.014 0.456,-0.003C0.425,0.008 0.39,0.013 0.352,0.013C0.286,0.013 0.228,-0.002 0.18,-0.033C0.131,-0.063 0.094,-0.105 0.068,-0.159C0.041,-0.212 0.028,-0.274 0.028,-0.345C0.028,-0.398 0.036,-0.446 0.052,-0.491C0.068,-0.536 0.091,-0.575 0.121,-0.608C0.15,-0.641 0.184,-0.666 0.224,-0.684C0.263,-0.702 0.306,-0.712 0.353,-0.712C0.384,-0.712 0.41,-0.708 0.431,-0.702C0.451,-0.695 0.467,-0.689 0.479,-0.682C0.49,-0.676 0.498,-0.673 0.503,-0.673C0.508,-0.673 0.513,-0.676 0.519,-0.682C0.524,-0.689 0.529,-0.695 0.535,-0.702C0.54,-0.708 0.546,-0.711 0.551,-0.711C0.555,-0.711 0.558,-0.71 0.561,-0.707C0.564,-0.704 0.566,-0.699 0.568,-0.69L0.617,-0.508C0.619,-0.502 0.618,-0.497 0.616,-0.492C0.613,-0.487 0.609,-0.485 0.603,-0.484C0.597,-0.483 0.592,-0.483 0.587,-0.486C0.582,-0.488 0.579,-0.493 0.576,-0.5C0.56,-0.543 0.542,-0.576 0.522,-0.601C0.501,-0.626 0.48,-0.644 0.456,-0.655C0.432,-0.666 0.406,-0.672 0.378,-0.672C0.348,-0.672 0.321,-0.665 0.297,-0.651C0.272,-0.638 0.251,-0.618 0.233,-0.593C0.215,-0.567 0.201,-0.537 0.191,-0.5C0.181,-0.465 0.176,-0.424 0.176,-0.379C0.176,-0.311 0.186,-0.253 0.206,-0.206C0.226,-0.159 0.253,-0.123 0.288,-0.099C0.323,-0.075 0.362,-0.063 0.407,-0.063C0.449,-0.063 0.485,-0.074 0.517,-0.097C0.548,-0.12 0.572,-0.153 0.589,-0.197C0.593,-0.203 0.596,-0.206 0.6,-0.208C0.603,-0.21 0.606,-0.21 0.61,-0.209C0.613,-0.209 0.615,-0.207 0.616,-0.204C0.618,-0.201 0.618,-0.197 0.618,-0.193Z" style="fill:rgb(152,128,67);fill-rule:nonzero;"/>
                </g>
                <g transform="matrix(10.4512,0,0,10.4512,8692.23,5820.32)">
                    <path d="M0.168,-0.35L0.572,-0.35L0.572,-0.31L0.168,-0.31L0.168,-0.35ZM0.243,-0.071C0.243,-0.064 0.245,-0.059 0.249,-0.055C0.252,-0.051 0.258,-0.048 0.266,-0.045L0.298,-0.039C0.308,-0.035 0.313,-0.028 0.313,-0.019C0.313,-0.013 0.311,-0.008 0.308,-0.005C0.304,-0.002 0.299,-0 0.292,-0L0.055,-0C0.048,-0 0.042,-0.002 0.039,-0.005C0.035,-0.008 0.033,-0.013 0.033,-0.019C0.033,-0.028 0.038,-0.035 0.049,-0.039L0.081,-0.045C0.089,-0.048 0.094,-0.051 0.098,-0.055C0.101,-0.059 0.103,-0.064 0.103,-0.071L0.103,-0.629C0.103,-0.636 0.101,-0.642 0.098,-0.646C0.095,-0.65 0.089,-0.653 0.082,-0.655L0.049,-0.662C0.038,-0.666 0.033,-0.672 0.033,-0.682C0.033,-0.688 0.035,-0.692 0.039,-0.695C0.042,-0.698 0.048,-0.7 0.055,-0.7L0.292,-0.7C0.299,-0.7 0.304,-0.698 0.308,-0.695C0.311,-0.692 0.313,-0.688 0.313,-0.682C0.313,-0.672 0.308,-0.666 0.298,-0.662L0.265,-0.655C0.257,-0.653 0.252,-0.65 0.248,-0.646C0.245,-0.642 0.243,-0.636 0.243,-0.629L0.243,-0.071ZM0.654,-0.071C0.654,-0.064 0.656,-0.059 0.66,-0.055C0.663,-0.051 0.669,-0.048 0.677,-0.045L0.709,-0.039C0.719,-0.035 0.724,-0.028 0.724,-0.019C0.724,-0.013 0.722,-0.008 0.719,-0.005C0.715,-0.002 0.71,-0 0.703,-0L0.466,-0C0.459,-0 0.453,-0.002 0.45,-0.005C0.446,-0.008 0.444,-0.013 0.444,-0.019C0.444,-0.028 0.449,-0.035 0.46,-0.039L0.492,-0.045C0.5,-0.048 0.505,-0.051 0.509,-0.055C0.512,-0.059 0.514,-0.064 0.514,-0.071L0.514,-0.629C0.514,-0.636 0.512,-0.642 0.509,-0.646C0.506,-0.65 0.5,-0.653 0.493,-0.655L0.46,-0.662C0.449,-0.666 0.444,-0.672 0.444,-0.682C0.444,-0.688 0.446,-0.692 0.45,-0.695C0.453,-0.698 0.459,-0.7 0.466,-0.7L0.703,-0.7C0.71,-0.7 0.715,-0.698 0.719,-0.695C0.722,-0.692 0.724,-0.688 0.724,-0.682C0.724,-0.672 0.719,-0.666 0.709,-0.662L0.676,-0.655C0.668,-0.653 0.663,-0.65 0.659,-0.646C0.656,-0.642 0.654,-0.636 0.654,-0.629L0.654,-0.071Z" style="fill:rgb(152,128,67);fill-rule:nonzero;"/>
                </g>
                <g transform="matrix(10.4512,0,0,10.4512,8700.15,5820.32)">
                    <path d="M0.143,-0.283L0.415,-0.283L0.417,-0.244L0.141,-0.244L0.143,-0.283ZM0.19,-0.019C0.19,-0.013 0.188,-0.008 0.185,-0.005C0.182,-0.002 0.177,-0 0.17,-0L0.02,-0C0.013,-0 0.008,-0.002 0.005,-0.005C0.001,-0.008 -0,-0.013 -0.001,-0.019C-0,-0.023 0.001,-0.026 0.003,-0.029C0.005,-0.032 0.009,-0.035 0.013,-0.037L0.03,-0.043C0.039,-0.047 0.048,-0.054 0.055,-0.063C0.062,-0.071 0.068,-0.087 0.075,-0.108L0.227,-0.614C0.231,-0.627 0.232,-0.637 0.229,-0.644C0.226,-0.651 0.22,-0.656 0.21,-0.66C0.203,-0.663 0.198,-0.667 0.195,-0.67C0.192,-0.673 0.19,-0.677 0.19,-0.682C0.19,-0.688 0.192,-0.692 0.196,-0.695C0.199,-0.698 0.204,-0.7 0.212,-0.7L0.428,-0.7C0.435,-0.7 0.44,-0.698 0.444,-0.695C0.448,-0.692 0.45,-0.688 0.45,-0.682C0.45,-0.677 0.448,-0.673 0.445,-0.67C0.442,-0.666 0.437,-0.663 0.43,-0.661C0.422,-0.658 0.417,-0.654 0.415,-0.65C0.413,-0.646 0.414,-0.638 0.417,-0.627L0.588,-0.086C0.593,-0.071 0.598,-0.06 0.604,-0.054C0.61,-0.047 0.617,-0.042 0.627,-0.039C0.633,-0.036 0.637,-0.033 0.639,-0.03C0.642,-0.027 0.643,-0.023 0.643,-0.019C0.643,-0.013 0.641,-0.009 0.638,-0.005C0.634,-0.002 0.629,-0 0.622,-0L0.414,-0C0.407,-0 0.402,-0.002 0.398,-0.005C0.395,-0.008 0.393,-0.013 0.393,-0.019C0.393,-0.023 0.394,-0.027 0.397,-0.03C0.4,-0.033 0.404,-0.035 0.409,-0.038L0.434,-0.043C0.441,-0.045 0.445,-0.048 0.447,-0.054C0.448,-0.059 0.447,-0.069 0.443,-0.082L0.268,-0.643L0.282,-0.656L0.118,-0.114C0.115,-0.1 0.113,-0.088 0.115,-0.079C0.117,-0.069 0.121,-0.062 0.128,-0.056C0.134,-0.05 0.143,-0.046 0.153,-0.043L0.175,-0.037C0.181,-0.035 0.185,-0.033 0.187,-0.029C0.189,-0.027 0.19,-0.023 0.19,-0.019Z" style="fill:rgb(152,128,67);fill-rule:nonzero;"/>
                </g>
                <g transform="matrix(10.4512,0,0,10.4512,8706.9,5820.32)">
                    <path d="M0.615,-0.458C0.615,-0.425 0.608,-0.396 0.594,-0.369C0.58,-0.343 0.561,-0.321 0.536,-0.303C0.511,-0.285 0.482,-0.273 0.448,-0.267C0.437,-0.265 0.428,-0.263 0.419,-0.261C0.41,-0.259 0.401,-0.257 0.391,-0.256C0.381,-0.255 0.37,-0.255 0.357,-0.255C0.335,-0.255 0.315,-0.256 0.297,-0.259C0.279,-0.262 0.262,-0.266 0.247,-0.272C0.232,-0.278 0.219,-0.284 0.207,-0.293L0.211,-0.328C0.222,-0.319 0.234,-0.313 0.247,-0.308C0.26,-0.304 0.273,-0.301 0.287,-0.299C0.3,-0.297 0.314,-0.296 0.327,-0.296C0.372,-0.296 0.407,-0.309 0.434,-0.336C0.46,-0.363 0.472,-0.403 0.472,-0.455C0.472,-0.495 0.465,-0.53 0.449,-0.561C0.433,-0.592 0.411,-0.617 0.383,-0.634C0.355,-0.652 0.322,-0.661 0.285,-0.661L0.242,-0.661L0.242,-0.074C0.242,-0.066 0.243,-0.059 0.247,-0.055C0.25,-0.051 0.256,-0.048 0.264,-0.045L0.296,-0.039C0.301,-0.037 0.305,-0.034 0.308,-0.031C0.31,-0.028 0.312,-0.024 0.312,-0.019C0.312,-0.006 0.305,-0 0.291,-0L0.053,-0C0.046,-0 0.041,-0.002 0.037,-0.005C0.033,-0.008 0.032,-0.013 0.032,-0.019C0.032,-0.028 0.037,-0.035 0.047,-0.039L0.079,-0.045C0.087,-0.048 0.093,-0.051 0.096,-0.055C0.1,-0.059 0.102,-0.066 0.102,-0.074L0.102,-0.629C0.102,-0.636 0.1,-0.642 0.096,-0.646C0.093,-0.65 0.087,-0.653 0.079,-0.655L0.047,-0.662C0.037,-0.666 0.032,-0.672 0.032,-0.682C0.032,-0.688 0.033,-0.692 0.037,-0.695C0.041,-0.698 0.046,-0.7 0.053,-0.7L0.289,-0.7C0.358,-0.7 0.416,-0.69 0.465,-0.669C0.513,-0.648 0.55,-0.62 0.576,-0.584C0.602,-0.547 0.615,-0.505 0.615,-0.458ZM0.346,-0.277L0.479,-0.293L0.607,-0.071C0.613,-0.061 0.619,-0.054 0.625,-0.05C0.632,-0.045 0.641,-0.042 0.651,-0.039C0.658,-0.037 0.662,-0.034 0.665,-0.031C0.668,-0.028 0.669,-0.024 0.669,-0.019C0.669,-0.013 0.667,-0.008 0.664,-0.005C0.66,-0.002 0.655,-0 0.648,-0L0.44,-0C0.426,-0 0.42,-0.006 0.42,-0.019C0.42,-0.023 0.421,-0.026 0.423,-0.028C0.425,-0.03 0.428,-0.032 0.432,-0.034L0.452,-0.039C0.459,-0.041 0.463,-0.044 0.464,-0.049C0.465,-0.053 0.464,-0.06 0.459,-0.07L0.346,-0.277Z" style="fill:rgb(152,128,67);fill-rule:nonzero;"/>
                </g>
                <g transform="matrix(10.4512,0,0,10.4512,8713.91,5820.32)">
                    <path d="M0.13,-0.7L0.495,-0.7C0.504,-0.7 0.512,-0.701 0.519,-0.704C0.526,-0.707 0.532,-0.709 0.538,-0.712C0.543,-0.715 0.548,-0.716 0.553,-0.716C0.56,-0.716 0.566,-0.714 0.57,-0.71C0.574,-0.706 0.577,-0.698 0.579,-0.687L0.61,-0.527C0.612,-0.519 0.611,-0.513 0.609,-0.508C0.607,-0.503 0.603,-0.5 0.597,-0.499C0.592,-0.498 0.587,-0.499 0.583,-0.501C0.579,-0.503 0.576,-0.508 0.573,-0.515C0.557,-0.556 0.542,-0.586 0.529,-0.607C0.516,-0.628 0.502,-0.642 0.489,-0.65C0.476,-0.657 0.462,-0.661 0.447,-0.661L0.383,-0.661L0.383,-0.07C0.383,-0.064 0.384,-0.058 0.388,-0.054C0.392,-0.05 0.397,-0.047 0.405,-0.045L0.442,-0.039C0.452,-0.035 0.457,-0.028 0.457,-0.019C0.457,-0.006 0.45,-0 0.436,-0L0.19,-0C0.183,-0 0.178,-0.002 0.174,-0.005C0.17,-0.008 0.169,-0.013 0.169,-0.019C0.169,-0.028 0.174,-0.035 0.184,-0.039L0.221,-0.045C0.228,-0.047 0.234,-0.05 0.237,-0.054C0.241,-0.058 0.243,-0.064 0.243,-0.07L0.243,-0.661L0.177,-0.661C0.162,-0.661 0.148,-0.657 0.136,-0.649C0.123,-0.641 0.11,-0.627 0.097,-0.606C0.083,-0.585 0.069,-0.555 0.053,-0.515C0.05,-0.508 0.046,-0.503 0.042,-0.501C0.038,-0.499 0.033,-0.498 0.028,-0.499C0.023,-0.5 0.019,-0.503 0.017,-0.508C0.014,-0.513 0.014,-0.519 0.016,-0.527L0.046,-0.688C0.048,-0.698 0.051,-0.706 0.056,-0.71C0.059,-0.714 0.065,-0.717 0.072,-0.717C0.077,-0.717 0.082,-0.715 0.087,-0.713C0.093,-0.71 0.099,-0.707 0.106,-0.704C0.113,-0.701 0.121,-0.7 0.13,-0.7Z" style="fill:rgb(152,128,67);fill-rule:nonzero;"/>
                </g>
                <g transform="matrix(10.4512,0,0,10.4512,8722.97,5820.32)">
                    <path d="M0.361,-0.71C0.412,-0.71 0.459,-0.701 0.5,-0.684C0.543,-0.666 0.579,-0.642 0.609,-0.61C0.639,-0.578 0.662,-0.541 0.679,-0.497C0.695,-0.453 0.703,-0.406 0.703,-0.354C0.703,-0.299 0.695,-0.25 0.679,-0.205C0.663,-0.16 0.64,-0.122 0.61,-0.09C0.58,-0.058 0.545,-0.033 0.504,-0.016C0.463,0.002 0.418,0.01 0.369,0.011C0.317,0.01 0.271,0.002 0.229,-0.016C0.187,-0.033 0.151,-0.057 0.121,-0.089C0.091,-0.121 0.067,-0.159 0.051,-0.203C0.035,-0.247 0.027,-0.297 0.027,-0.35C0.027,-0.404 0.035,-0.452 0.051,-0.496C0.067,-0.54 0.09,-0.578 0.12,-0.61C0.15,-0.642 0.185,-0.666 0.226,-0.684C0.267,-0.701 0.312,-0.71 0.361,-0.71ZM0.557,-0.267C0.557,-0.307 0.553,-0.346 0.546,-0.385C0.539,-0.424 0.529,-0.46 0.516,-0.494C0.503,-0.528 0.487,-0.558 0.469,-0.584C0.451,-0.609 0.43,-0.629 0.408,-0.644C0.386,-0.658 0.362,-0.666 0.336,-0.666C0.304,-0.666 0.275,-0.656 0.251,-0.638C0.226,-0.62 0.207,-0.593 0.193,-0.559C0.179,-0.525 0.172,-0.483 0.172,-0.435C0.172,-0.394 0.175,-0.354 0.183,-0.315C0.19,-0.276 0.2,-0.24 0.213,-0.206C0.226,-0.172 0.242,-0.142 0.26,-0.116C0.278,-0.09 0.299,-0.07 0.321,-0.056C0.344,-0.041 0.368,-0.034 0.393,-0.034C0.426,-0.034 0.455,-0.043 0.48,-0.061C0.504,-0.079 0.523,-0.105 0.537,-0.14C0.55,-0.175 0.557,-0.217 0.557,-0.267Z" style="fill:rgb(152,128,67);fill-rule:nonzero;"/>
                </g>
                <g transform="matrix(10.4512,0,0,10.4512,8730.62,5820.32)">
                    <path d="M0.413,-0.7C0.423,-0.7 0.432,-0.701 0.439,-0.704C0.446,-0.707 0.452,-0.709 0.458,-0.712C0.463,-0.715 0.468,-0.716 0.473,-0.716C0.48,-0.716 0.485,-0.714 0.489,-0.71C0.493,-0.705 0.496,-0.698 0.499,-0.687L0.537,-0.535C0.539,-0.529 0.538,-0.524 0.535,-0.52C0.532,-0.516 0.529,-0.513 0.524,-0.511C0.519,-0.511 0.515,-0.511 0.511,-0.514C0.507,-0.516 0.503,-0.52 0.5,-0.527C0.482,-0.563 0.466,-0.59 0.451,-0.61C0.436,-0.629 0.421,-0.643 0.406,-0.65C0.39,-0.658 0.373,-0.662 0.354,-0.662L0.242,-0.662L0.242,-0.07C0.242,-0.063 0.244,-0.058 0.248,-0.054C0.252,-0.05 0.258,-0.047 0.266,-0.045L0.315,-0.038C0.321,-0.036 0.325,-0.034 0.327,-0.031C0.33,-0.028 0.331,-0.024 0.331,-0.019C0.331,-0.013 0.329,-0.008 0.326,-0.005C0.322,-0.002 0.317,-0 0.31,-0L0.053,-0C0.046,-0 0.041,-0.002 0.037,-0.005C0.033,-0.008 0.032,-0.013 0.032,-0.019C0.032,-0.028 0.037,-0.035 0.047,-0.039L0.08,-0.045C0.088,-0.047 0.093,-0.05 0.097,-0.054C0.1,-0.058 0.102,-0.064 0.102,-0.07L0.102,-0.629C0.102,-0.636 0.1,-0.642 0.097,-0.646C0.093,-0.65 0.088,-0.653 0.08,-0.655L0.047,-0.662C0.037,-0.666 0.032,-0.672 0.032,-0.682C0.032,-0.688 0.033,-0.692 0.037,-0.695C0.041,-0.698 0.046,-0.7 0.053,-0.7L0.413,-0.7ZM0.193,-0.358L0.344,-0.358C0.366,-0.358 0.382,-0.363 0.392,-0.372C0.402,-0.382 0.408,-0.399 0.41,-0.425C0.412,-0.431 0.414,-0.435 0.417,-0.438C0.42,-0.441 0.423,-0.443 0.427,-0.443C0.436,-0.443 0.442,-0.437 0.445,-0.426L0.481,-0.272C0.482,-0.265 0.482,-0.26 0.481,-0.256C0.479,-0.252 0.475,-0.249 0.47,-0.247C0.467,-0.246 0.463,-0.246 0.459,-0.248C0.455,-0.249 0.451,-0.252 0.448,-0.257C0.438,-0.273 0.428,-0.286 0.42,-0.295C0.411,-0.304 0.402,-0.31 0.392,-0.314C0.382,-0.318 0.37,-0.32 0.356,-0.32L0.193,-0.32L0.193,-0.358Z" style="fill:rgb(152,128,67);fill-rule:nonzero;"/>
                </g>
                <g transform="matrix(10.4512,0,0,10.4512,8738.84,5820.32)">
                    <path d="M0.13,-0.7L0.495,-0.7C0.504,-0.7 0.512,-0.701 0.519,-0.704C0.526,-0.707 0.532,-0.709 0.538,-0.712C0.543,-0.715 0.548,-0.716 0.553,-0.716C0.56,-0.716 0.566,-0.714 0.57,-0.71C0.574,-0.706 0.577,-0.698 0.579,-0.687L0.61,-0.527C0.612,-0.519 0.611,-0.513 0.609,-0.508C0.607,-0.503 0.603,-0.5 0.597,-0.499C0.592,-0.498 0.587,-0.499 0.583,-0.501C0.579,-0.503 0.576,-0.508 0.573,-0.515C0.557,-0.556 0.542,-0.586 0.529,-0.607C0.516,-0.628 0.502,-0.642 0.489,-0.65C0.476,-0.657 0.462,-0.661 0.447,-0.661L0.383,-0.661L0.383,-0.07C0.383,-0.064 0.384,-0.058 0.388,-0.054C0.392,-0.05 0.397,-0.047 0.405,-0.045L0.442,-0.039C0.452,-0.035 0.457,-0.028 0.457,-0.019C0.457,-0.006 0.45,-0 0.436,-0L0.19,-0C0.183,-0 0.178,-0.002 0.174,-0.005C0.17,-0.008 0.169,-0.013 0.169,-0.019C0.169,-0.028 0.174,-0.035 0.184,-0.039L0.221,-0.045C0.228,-0.047 0.234,-0.05 0.237,-0.054C0.241,-0.058 0.243,-0.064 0.243,-0.07L0.243,-0.661L0.177,-0.661C0.162,-0.661 0.148,-0.657 0.136,-0.649C0.123,-0.641 0.11,-0.627 0.097,-0.606C0.083,-0.585 0.069,-0.555 0.053,-0.515C0.05,-0.508 0.046,-0.503 0.042,-0.501C0.038,-0.499 0.033,-0.498 0.028,-0.499C0.023,-0.5 0.019,-0.503 0.017,-0.508C0.014,-0.513 0.014,-0.519 0.016,-0.527L0.046,-0.688C0.048,-0.698 0.051,-0.706 0.056,-0.71C0.059,-0.714 0.065,-0.717 0.072,-0.717C0.077,-0.717 0.082,-0.715 0.087,-0.713C0.093,-0.71 0.099,-0.707 0.106,-0.704C0.113,-0.701 0.121,-0.7 0.13,-0.7Z" style="fill:rgb(152,128,67);fill-rule:nonzero;"/>
                </g>
                <g transform="matrix(10.4512,0,0,10.4512,8745.37,5820.32)">
                    <path d="M0.168,-0.35L0.572,-0.35L0.572,-0.31L0.168,-0.31L0.168,-0.35ZM0.243,-0.071C0.243,-0.064 0.245,-0.059 0.249,-0.055C0.252,-0.051 0.258,-0.048 0.266,-0.045L0.298,-0.039C0.308,-0.035 0.313,-0.028 0.313,-0.019C0.313,-0.013 0.311,-0.008 0.308,-0.005C0.304,-0.002 0.299,-0 0.292,-0L0.055,-0C0.048,-0 0.042,-0.002 0.039,-0.005C0.035,-0.008 0.033,-0.013 0.033,-0.019C0.033,-0.028 0.038,-0.035 0.049,-0.039L0.081,-0.045C0.089,-0.048 0.094,-0.051 0.098,-0.055C0.101,-0.059 0.103,-0.064 0.103,-0.071L0.103,-0.629C0.103,-0.636 0.101,-0.642 0.098,-0.646C0.095,-0.65 0.089,-0.653 0.082,-0.655L0.049,-0.662C0.038,-0.666 0.033,-0.672 0.033,-0.682C0.033,-0.688 0.035,-0.692 0.039,-0.695C0.042,-0.698 0.048,-0.7 0.055,-0.7L0.292,-0.7C0.299,-0.7 0.304,-0.698 0.308,-0.695C0.311,-0.692 0.313,-0.688 0.313,-0.682C0.313,-0.672 0.308,-0.666 0.298,-0.662L0.265,-0.655C0.257,-0.653 0.252,-0.65 0.248,-0.646C0.245,-0.642 0.243,-0.636 0.243,-0.629L0.243,-0.071ZM0.654,-0.071C0.654,-0.064 0.656,-0.059 0.66,-0.055C0.663,-0.051 0.669,-0.048 0.677,-0.045L0.709,-0.039C0.719,-0.035 0.724,-0.028 0.724,-0.019C0.724,-0.013 0.722,-0.008 0.719,-0.005C0.715,-0.002 0.71,-0 0.703,-0L0.466,-0C0.459,-0 0.453,-0.002 0.45,-0.005C0.446,-0.008 0.444,-0.013 0.444,-0.019C0.444,-0.028 0.449,-0.035 0.46,-0.039L0.492,-0.045C0.5,-0.048 0.505,-0.051 0.509,-0.055C0.512,-0.059 0.514,-0.064 0.514,-0.071L0.514,-0.629C0.514,-0.636 0.512,-0.642 0.509,-0.646C0.506,-0.65 0.5,-0.653 0.493,-0.655L0.46,-0.662C0.449,-0.666 0.444,-0.672 0.444,-0.682C0.444,-0.688 0.446,-0.692 0.45,-0.695C0.453,-0.698 0.459,-0.7 0.466,-0.7L0.703,-0.7C0.71,-0.7 0.715,-0.698 0.719,-0.695C0.722,-0.692 0.724,-0.688 0.724,-0.682C0.724,-0.672 0.719,-0.666 0.709,-0.662L0.676,-0.655C0.668,-0.653 0.663,-0.65 0.659,-0.646C0.656,-0.642 0.654,-0.636 0.654,-0.629L0.654,-0.071Z" style="fill:rgb(152,128,67);fill-rule:nonzero;"/>
                </g>
                <g transform="matrix(10.4512,0,0,10.4512,8753.29,5820.32)">
                    <path d="M0.197,-0.376L0.352,-0.376C0.372,-0.376 0.386,-0.38 0.396,-0.39C0.405,-0.399 0.411,-0.417 0.414,-0.442C0.416,-0.449 0.418,-0.453 0.421,-0.456C0.424,-0.459 0.427,-0.46 0.431,-0.46C0.44,-0.461 0.446,-0.455 0.449,-0.444L0.491,-0.29C0.492,-0.283 0.492,-0.277 0.49,-0.273C0.488,-0.269 0.485,-0.266 0.481,-0.265C0.477,-0.264 0.472,-0.264 0.469,-0.266C0.465,-0.267 0.461,-0.27 0.458,-0.275C0.447,-0.291 0.438,-0.304 0.429,-0.313C0.42,-0.322 0.41,-0.328 0.4,-0.332C0.389,-0.335 0.377,-0.337 0.362,-0.337L0.197,-0.337L0.197,-0.376ZM0.032,-0.682C0.032,-0.688 0.033,-0.692 0.037,-0.695C0.041,-0.698 0.046,-0.7 0.053,-0.7L0.438,-0.7C0.447,-0.7 0.456,-0.701 0.463,-0.704C0.469,-0.707 0.476,-0.709 0.481,-0.712C0.487,-0.715 0.492,-0.716 0.497,-0.716C0.504,-0.716 0.509,-0.714 0.513,-0.71C0.517,-0.705 0.52,-0.698 0.523,-0.687L0.561,-0.539C0.562,-0.532 0.562,-0.527 0.559,-0.523C0.557,-0.519 0.553,-0.516 0.548,-0.515C0.543,-0.514 0.538,-0.514 0.533,-0.516C0.529,-0.518 0.525,-0.522 0.522,-0.529C0.507,-0.557 0.494,-0.579 0.482,-0.596C0.47,-0.613 0.458,-0.627 0.447,-0.636C0.435,-0.646 0.424,-0.653 0.411,-0.656C0.4,-0.66 0.386,-0.662 0.372,-0.662L0.242,-0.662L0.242,-0.081C0.242,-0.067 0.245,-0.056 0.252,-0.049C0.259,-0.042 0.269,-0.039 0.282,-0.039L0.381,-0.039C0.401,-0.039 0.419,-0.043 0.435,-0.051C0.451,-0.059 0.467,-0.075 0.483,-0.099C0.5,-0.122 0.518,-0.157 0.539,-0.203C0.542,-0.209 0.546,-0.214 0.55,-0.216C0.554,-0.218 0.558,-0.219 0.564,-0.218C0.569,-0.216 0.573,-0.213 0.575,-0.208C0.577,-0.203 0.578,-0.197 0.576,-0.19L0.533,-0.014C0.53,-0.004 0.527,0.004 0.523,0.008C0.519,0.013 0.514,0.015 0.506,0.015C0.501,0.015 0.496,0.014 0.491,0.011C0.485,0.009 0.478,0.006 0.471,0.004C0.463,0.001 0.454,-0 0.444,-0L0.053,-0C0.046,-0 0.041,-0.002 0.037,-0.005C0.033,-0.008 0.032,-0.013 0.032,-0.019C0.032,-0.028 0.037,-0.035 0.047,-0.039L0.08,-0.045C0.088,-0.047 0.093,-0.05 0.097,-0.054C0.1,-0.058 0.102,-0.064 0.102,-0.07L0.102,-0.629C0.102,-0.636 0.1,-0.642 0.097,-0.646C0.093,-0.65 0.088,-0.653 0.08,-0.655L0.047,-0.662C0.037,-0.666 0.032,-0.672 0.032,-0.682Z" style="fill:rgb(152,128,67);fill-rule:nonzero;"/>
                </g>
                <g transform="matrix(15.1781,0,0,15.1781,8762.03,5820.32)">
                    <path d="M0.608,-0.442C0.608,-0.397 0.598,-0.357 0.577,-0.324C0.556,-0.291 0.527,-0.265 0.49,-0.247C0.452,-0.229 0.408,-0.22 0.358,-0.22C0.324,-0.22 0.293,-0.223 0.265,-0.231C0.236,-0.239 0.211,-0.25 0.188,-0.265L0.193,-0.302C0.208,-0.292 0.223,-0.283 0.237,-0.278C0.251,-0.272 0.265,-0.267 0.279,-0.265C0.292,-0.262 0.306,-0.261 0.319,-0.261C0.347,-0.261 0.373,-0.268 0.395,-0.282C0.417,-0.297 0.435,-0.318 0.448,-0.345C0.461,-0.373 0.468,-0.406 0.468,-0.446C0.468,-0.49 0.46,-0.529 0.445,-0.561C0.429,-0.593 0.407,-0.618 0.379,-0.635C0.351,-0.653 0.319,-0.662 0.281,-0.662L0.242,-0.662L0.242,-0.071C0.242,-0.064 0.243,-0.058 0.247,-0.054C0.25,-0.05 0.255,-0.047 0.263,-0.045L0.304,-0.038C0.309,-0.036 0.313,-0.034 0.315,-0.031C0.318,-0.028 0.319,-0.024 0.319,-0.019C0.319,-0.013 0.317,-0.008 0.314,-0.005C0.31,-0.002 0.305,-0 0.298,-0L0.053,-0C0.046,-0 0.041,-0.002 0.037,-0.005C0.033,-0.008 0.032,-0.013 0.032,-0.019C0.032,-0.028 0.037,-0.035 0.047,-0.039L0.081,-0.046C0.088,-0.048 0.094,-0.051 0.097,-0.055C0.1,-0.059 0.102,-0.064 0.102,-0.07L0.102,-0.628C0.102,-0.635 0.1,-0.641 0.097,-0.645C0.094,-0.649 0.089,-0.653 0.082,-0.655L0.047,-0.662C0.037,-0.666 0.032,-0.672 0.032,-0.682C0.032,-0.688 0.033,-0.692 0.037,-0.695C0.041,-0.698 0.046,-0.7 0.053,-0.7L0.284,-0.7C0.351,-0.7 0.409,-0.689 0.457,-0.667C0.505,-0.645 0.543,-0.614 0.569,-0.575C0.595,-0.536 0.608,-0.492 0.608,-0.442Z" style="fill:rgb(152,128,67);fill-rule:nonzero;"/>
                </g>
                <g transform="matrix(10.4512,0,0,10.4512,8771.47,5820.32)">
                    <path d="M0.143,-0.283L0.415,-0.283L0.417,-0.244L0.141,-0.244L0.143,-0.283ZM0.19,-0.019C0.19,-0.013 0.188,-0.008 0.185,-0.005C0.182,-0.002 0.177,-0 0.17,-0L0.02,-0C0.013,-0 0.008,-0.002 0.005,-0.005C0.001,-0.008 -0,-0.013 -0.001,-0.019C-0,-0.023 0.001,-0.026 0.003,-0.029C0.005,-0.032 0.009,-0.035 0.013,-0.037L0.03,-0.043C0.039,-0.047 0.048,-0.054 0.055,-0.063C0.062,-0.071 0.068,-0.087 0.075,-0.108L0.227,-0.614C0.231,-0.627 0.232,-0.637 0.229,-0.644C0.226,-0.651 0.22,-0.656 0.21,-0.66C0.203,-0.663 0.198,-0.667 0.195,-0.67C0.192,-0.673 0.19,-0.677 0.19,-0.682C0.19,-0.688 0.192,-0.692 0.196,-0.695C0.199,-0.698 0.204,-0.7 0.212,-0.7L0.428,-0.7C0.435,-0.7 0.44,-0.698 0.444,-0.695C0.448,-0.692 0.45,-0.688 0.45,-0.682C0.45,-0.677 0.448,-0.673 0.445,-0.67C0.442,-0.666 0.437,-0.663 0.43,-0.661C0.422,-0.658 0.417,-0.654 0.415,-0.65C0.413,-0.646 0.414,-0.638 0.417,-0.627L0.588,-0.086C0.593,-0.071 0.598,-0.06 0.604,-0.054C0.61,-0.047 0.617,-0.042 0.627,-0.039C0.633,-0.036 0.637,-0.033 0.639,-0.03C0.642,-0.027 0.643,-0.023 0.643,-0.019C0.643,-0.013 0.641,-0.009 0.638,-0.005C0.634,-0.002 0.629,-0 0.622,-0L0.414,-0C0.407,-0 0.402,-0.002 0.398,-0.005C0.395,-0.008 0.393,-0.013 0.393,-0.019C0.393,-0.023 0.394,-0.027 0.397,-0.03C0.4,-0.033 0.404,-0.035 0.409,-0.038L0.434,-0.043C0.441,-0.045 0.445,-0.048 0.447,-0.054C0.448,-0.059 0.447,-0.069 0.443,-0.082L0.268,-0.643L0.282,-0.656L0.118,-0.114C0.115,-0.1 0.113,-0.088 0.115,-0.079C0.117,-0.069 0.121,-0.062 0.128,-0.056C0.134,-0.05 0.143,-0.046 0.153,-0.043L0.175,-0.037C0.181,-0.035 0.185,-0.033 0.187,-0.029C0.189,-0.027 0.19,-0.023 0.19,-0.019Z" style="fill:rgb(152,128,67);fill-rule:nonzero;"/>
                </g>
                <g transform="matrix(10.4512,0,0,10.4512,8778.22,5820.32)">
                    <path d="M0.241,-0.071C0.241,-0.064 0.242,-0.059 0.246,-0.055C0.25,-0.051 0.256,-0.048 0.264,-0.045L0.295,-0.039C0.305,-0.035 0.311,-0.028 0.311,-0.019C0.311,-0.013 0.309,-0.008 0.305,-0.005C0.302,-0.002 0.297,-0 0.29,-0L0.052,-0C0.045,-0 0.04,-0.002 0.036,-0.005C0.032,-0.008 0.031,-0.013 0.031,-0.019C0.031,-0.028 0.036,-0.035 0.047,-0.039L0.078,-0.045C0.086,-0.048 0.092,-0.051 0.095,-0.055C0.099,-0.059 0.101,-0.064 0.101,-0.071L0.101,-0.629C0.101,-0.636 0.099,-0.642 0.096,-0.646C0.092,-0.65 0.087,-0.653 0.079,-0.655L0.047,-0.662C0.036,-0.666 0.031,-0.672 0.031,-0.682C0.031,-0.688 0.032,-0.692 0.036,-0.695C0.04,-0.698 0.045,-0.7 0.052,-0.7L0.29,-0.7C0.297,-0.7 0.302,-0.698 0.305,-0.695C0.309,-0.692 0.311,-0.688 0.311,-0.682C0.311,-0.672 0.305,-0.666 0.295,-0.662L0.263,-0.655C0.255,-0.653 0.249,-0.65 0.246,-0.646C0.242,-0.642 0.241,-0.636 0.241,-0.629L0.241,-0.071Z" style="fill:rgb(152,128,67);fill-rule:nonzero;"/>
                </g>
                <g transform="matrix(10.4512,0,0,10.4512,8781.79,5820.32)">
                    <path d="M0.234,-0.019C0.234,-0.013 0.232,-0.008 0.228,-0.005C0.225,-0.002 0.22,-0 0.213,-0L0.044,-0C0.037,-0 0.031,-0.002 0.028,-0.005C0.025,-0.008 0.023,-0.013 0.023,-0.019C0.023,-0.028 0.029,-0.034 0.04,-0.039L0.066,-0.047C0.077,-0.05 0.086,-0.056 0.093,-0.064C0.1,-0.072 0.103,-0.084 0.103,-0.099L0.103,-0.556C0.103,-0.566 0.103,-0.574 0.102,-0.579C0.101,-0.584 0.098,-0.59 0.093,-0.596L0.049,-0.659C0.045,-0.664 0.042,-0.668 0.04,-0.672C0.038,-0.676 0.037,-0.68 0.037,-0.685C0.037,-0.69 0.038,-0.693 0.042,-0.696C0.045,-0.699 0.049,-0.7 0.055,-0.7L0.178,-0.7C0.185,-0.7 0.191,-0.699 0.195,-0.696C0.2,-0.693 0.204,-0.689 0.209,-0.682L0.567,-0.137L0.554,-0.096L0.554,-0.601C0.554,-0.616 0.551,-0.628 0.544,-0.636C0.537,-0.644 0.527,-0.65 0.515,-0.654L0.482,-0.661C0.47,-0.666 0.465,-0.673 0.465,-0.682C0.465,-0.688 0.466,-0.692 0.47,-0.695C0.473,-0.698 0.478,-0.7 0.486,-0.7L0.655,-0.7C0.662,-0.7 0.667,-0.698 0.67,-0.695C0.674,-0.692 0.676,-0.688 0.676,-0.682C0.676,-0.673 0.67,-0.666 0.659,-0.661L0.633,-0.654C0.621,-0.65 0.612,-0.644 0.605,-0.636C0.598,-0.628 0.595,-0.616 0.595,-0.601L0.595,-0.128C0.595,-0.119 0.595,-0.112 0.597,-0.106C0.599,-0.1 0.601,-0.094 0.604,-0.089L0.631,-0.045C0.636,-0.037 0.639,-0.032 0.641,-0.028C0.642,-0.024 0.643,-0.02 0.643,-0.017C0.643,-0.012 0.641,-0.008 0.638,-0.005C0.635,-0.002 0.63,-0 0.624,-0L0.496,-0C0.484,-0 0.478,-0.005 0.478,-0.016C0.478,-0.02 0.477,-0.025 0.475,-0.029C0.474,-0.033 0.47,-0.04 0.464,-0.049L0.117,-0.576L0.145,-0.597L0.145,-0.099C0.145,-0.084 0.148,-0.072 0.155,-0.064C0.162,-0.056 0.171,-0.051 0.183,-0.047L0.217,-0.039C0.228,-0.034 0.234,-0.028 0.234,-0.019Z" style="fill:rgb(152,128,67);fill-rule:nonzero;"/>
                </g>
                <g transform="matrix(10.4512,0,0,10.4512,8789.07,5820.32)">
                    <path d="M0.13,-0.7L0.495,-0.7C0.504,-0.7 0.512,-0.701 0.519,-0.704C0.526,-0.707 0.532,-0.709 0.538,-0.712C0.543,-0.715 0.548,-0.716 0.553,-0.716C0.56,-0.716 0.566,-0.714 0.57,-0.71C0.574,-0.706 0.577,-0.698 0.579,-0.687L0.61,-0.527C0.612,-0.519 0.611,-0.513 0.609,-0.508C0.607,-0.503 0.603,-0.5 0.597,-0.499C0.592,-0.498 0.587,-0.499 0.583,-0.501C0.579,-0.503 0.576,-0.508 0.573,-0.515C0.557,-0.556 0.542,-0.586 0.529,-0.607C0.516,-0.628 0.502,-0.642 0.489,-0.65C0.476,-0.657 0.462,-0.661 0.447,-0.661L0.383,-0.661L0.383,-0.07C0.383,-0.064 0.384,-0.058 0.388,-0.054C0.392,-0.05 0.397,-0.047 0.405,-0.045L0.442,-0.039C0.452,-0.035 0.457,-0.028 0.457,-0.019C0.457,-0.006 0.45,-0 0.436,-0L0.19,-0C0.183,-0 0.178,-0.002 0.174,-0.005C0.17,-0.008 0.169,-0.013 0.169,-0.019C0.169,-0.028 0.174,-0.035 0.184,-0.039L0.221,-0.045C0.228,-0.047 0.234,-0.05 0.237,-0.054C0.241,-0.058 0.243,-0.064 0.243,-0.07L0.243,-0.661L0.177,-0.661C0.162,-0.661 0.148,-0.657 0.136,-0.649C0.123,-0.641 0.11,-0.627 0.097,-0.606C0.083,-0.585 0.069,-0.555 0.053,-0.515C0.05,-0.508 0.046,-0.503 0.042,-0.501C0.038,-0.499 0.033,-0.498 0.028,-0.499C0.023,-0.5 0.019,-0.503 0.017,-0.508C0.014,-0.513 0.014,-0.519 0.016,-0.527L0.046,-0.688C0.048,-0.698 0.051,-0.706 0.056,-0.71C0.059,-0.714 0.065,-0.717 0.072,-0.717C0.077,-0.717 0.082,-0.715 0.087,-0.713C0.093,-0.71 0.099,-0.707 0.106,-0.704C0.113,-0.701 0.121,-0.7 0.13,-0.7Z" style="fill:rgb(152,128,67);fill-rule:nonzero;"/>
                </g>
                <g transform="matrix(10.4512,0,0,10.4512,8795.6,5820.32)">
                    <path d="M0.241,-0.071C0.241,-0.064 0.242,-0.059 0.246,-0.055C0.25,-0.051 0.256,-0.048 0.264,-0.045L0.295,-0.039C0.305,-0.035 0.311,-0.028 0.311,-0.019C0.311,-0.013 0.309,-0.008 0.305,-0.005C0.302,-0.002 0.297,-0 0.29,-0L0.052,-0C0.045,-0 0.04,-0.002 0.036,-0.005C0.032,-0.008 0.031,-0.013 0.031,-0.019C0.031,-0.028 0.036,-0.035 0.047,-0.039L0.078,-0.045C0.086,-0.048 0.092,-0.051 0.095,-0.055C0.099,-0.059 0.101,-0.064 0.101,-0.071L0.101,-0.629C0.101,-0.636 0.099,-0.642 0.096,-0.646C0.092,-0.65 0.087,-0.653 0.079,-0.655L0.047,-0.662C0.036,-0.666 0.031,-0.672 0.031,-0.682C0.031,-0.688 0.032,-0.692 0.036,-0.695C0.04,-0.698 0.045,-0.7 0.052,-0.7L0.29,-0.7C0.297,-0.7 0.302,-0.698 0.305,-0.695C0.309,-0.692 0.311,-0.688 0.311,-0.682C0.311,-0.672 0.305,-0.666 0.295,-0.662L0.263,-0.655C0.255,-0.653 0.249,-0.65 0.246,-0.646C0.242,-0.642 0.241,-0.636 0.241,-0.629L0.241,-0.071Z" style="fill:rgb(152,128,67);fill-rule:nonzero;"/>
                </g>
                <g transform="matrix(10.4512,0,0,10.4512,8799.17,5820.32)">
                    <path d="M0.234,-0.019C0.234,-0.013 0.232,-0.008 0.228,-0.005C0.225,-0.002 0.22,-0 0.213,-0L0.044,-0C0.037,-0 0.031,-0.002 0.028,-0.005C0.025,-0.008 0.023,-0.013 0.023,-0.019C0.023,-0.028 0.029,-0.034 0.04,-0.039L0.066,-0.047C0.077,-0.05 0.086,-0.056 0.093,-0.064C0.1,-0.072 0.103,-0.084 0.103,-0.099L0.103,-0.556C0.103,-0.566 0.103,-0.574 0.102,-0.579C0.101,-0.584 0.098,-0.59 0.093,-0.596L0.049,-0.659C0.045,-0.664 0.042,-0.668 0.04,-0.672C0.038,-0.676 0.037,-0.68 0.037,-0.685C0.037,-0.69 0.038,-0.693 0.042,-0.696C0.045,-0.699 0.049,-0.7 0.055,-0.7L0.178,-0.7C0.185,-0.7 0.191,-0.699 0.195,-0.696C0.2,-0.693 0.204,-0.689 0.209,-0.682L0.567,-0.137L0.554,-0.096L0.554,-0.601C0.554,-0.616 0.551,-0.628 0.544,-0.636C0.537,-0.644 0.527,-0.65 0.515,-0.654L0.482,-0.661C0.47,-0.666 0.465,-0.673 0.465,-0.682C0.465,-0.688 0.466,-0.692 0.47,-0.695C0.473,-0.698 0.478,-0.7 0.486,-0.7L0.655,-0.7C0.662,-0.7 0.667,-0.698 0.67,-0.695C0.674,-0.692 0.676,-0.688 0.676,-0.682C0.676,-0.673 0.67,-0.666 0.659,-0.661L0.633,-0.654C0.621,-0.65 0.612,-0.644 0.605,-0.636C0.598,-0.628 0.595,-0.616 0.595,-0.601L0.595,-0.128C0.595,-0.119 0.595,-0.112 0.597,-0.106C0.599,-0.1 0.601,-0.094 0.604,-0.089L0.631,-0.045C0.636,-0.037 0.639,-0.032 0.641,-0.028C0.642,-0.024 0.643,-0.02 0.643,-0.017C0.643,-0.012 0.641,-0.008 0.638,-0.005C0.635,-0.002 0.63,-0 0.624,-0L0.496,-0C0.484,-0 0.478,-0.005 0.478,-0.016C0.478,-0.02 0.477,-0.025 0.475,-0.029C0.474,-0.033 0.47,-0.04 0.464,-0.049L0.117,-0.576L0.145,-0.597L0.145,-0.099C0.145,-0.084 0.148,-0.072 0.155,-0.064C0.162,-0.056 0.171,-0.051 0.183,-0.047L0.217,-0.039C0.228,-0.034 0.234,-0.028 0.234,-0.019Z" style="fill:rgb(152,128,67);fill-rule:nonzero;"/>
                </g>
                <g transform="matrix(10.4512,0,0,10.4512,8806.45,5820.32)">
                    <path d="M0.62,-0.016C0.62,-0.006 0.618,0.001 0.614,0.005C0.61,0.01 0.605,0.012 0.598,0.012C0.592,0.012 0.585,0.009 0.578,0.004C0.57,-0.001 0.563,-0.007 0.555,-0.014C0.547,-0.021 0.539,-0.027 0.531,-0.032C0.523,-0.037 0.517,-0.04 0.511,-0.04C0.507,-0.04 0.5,-0.037 0.493,-0.032C0.485,-0.027 0.474,-0.021 0.462,-0.015C0.449,-0.008 0.434,-0.003 0.415,0.002C0.397,0.007 0.375,0.01 0.349,0.01C0.301,0.01 0.256,0.001 0.217,-0.016C0.177,-0.033 0.143,-0.057 0.115,-0.088C0.087,-0.119 0.065,-0.156 0.05,-0.199C0.035,-0.242 0.028,-0.289 0.028,-0.341C0.028,-0.395 0.036,-0.445 0.053,-0.49C0.07,-0.535 0.094,-0.574 0.124,-0.607C0.155,-0.64 0.191,-0.665 0.232,-0.683C0.274,-0.701 0.319,-0.71 0.369,-0.71C0.4,-0.71 0.426,-0.707 0.446,-0.7C0.466,-0.693 0.482,-0.687 0.493,-0.68C0.504,-0.673 0.512,-0.67 0.517,-0.67C0.523,-0.67 0.529,-0.673 0.536,-0.68C0.543,-0.687 0.549,-0.693 0.556,-0.7C0.563,-0.706 0.57,-0.71 0.576,-0.71C0.58,-0.71 0.583,-0.708 0.586,-0.705C0.589,-0.702 0.591,-0.696 0.594,-0.687L0.635,-0.497C0.637,-0.491 0.636,-0.486 0.634,-0.482C0.632,-0.478 0.628,-0.475 0.623,-0.473C0.618,-0.472 0.613,-0.473 0.608,-0.475C0.604,-0.477 0.6,-0.482 0.597,-0.488C0.579,-0.533 0.559,-0.57 0.537,-0.597C0.514,-0.624 0.49,-0.643 0.464,-0.655C0.438,-0.667 0.409,-0.673 0.38,-0.673C0.339,-0.673 0.303,-0.661 0.272,-0.636C0.241,-0.613 0.217,-0.578 0.199,-0.532C0.181,-0.486 0.172,-0.43 0.172,-0.364C0.172,-0.296 0.182,-0.238 0.202,-0.19C0.222,-0.142 0.248,-0.105 0.281,-0.079C0.314,-0.053 0.35,-0.04 0.389,-0.04C0.403,-0.04 0.416,-0.042 0.429,-0.045C0.441,-0.048 0.452,-0.052 0.461,-0.058C0.47,-0.064 0.478,-0.071 0.483,-0.079C0.488,-0.087 0.491,-0.097 0.491,-0.108L0.491,-0.253C0.491,-0.26 0.489,-0.265 0.486,-0.268C0.482,-0.272 0.477,-0.274 0.469,-0.276L0.427,-0.282C0.421,-0.284 0.416,-0.286 0.413,-0.29C0.41,-0.293 0.408,-0.297 0.408,-0.302C0.408,-0.307 0.41,-0.311 0.413,-0.314C0.417,-0.317 0.422,-0.319 0.43,-0.319L0.658,-0.319C0.665,-0.319 0.671,-0.317 0.674,-0.314C0.677,-0.311 0.679,-0.307 0.679,-0.302C0.679,-0.297 0.678,-0.293 0.675,-0.29C0.673,-0.287 0.669,-0.285 0.664,-0.283L0.638,-0.278C0.632,-0.276 0.628,-0.273 0.625,-0.27C0.621,-0.266 0.62,-0.26 0.62,-0.253L0.62,-0.016Z" style="fill:rgb(152,128,67);fill-rule:nonzero;"/>
                </g>
                <g transform="matrix(10.4512,0,0,10.4512,8813.68,5820.32)">
                    <path d="M0.296,0.012C0.267,0.011 0.244,0.008 0.225,0.001C0.206,-0.006 0.191,-0.014 0.18,-0.021C0.169,-0.028 0.161,-0.032 0.156,-0.032C0.152,-0.032 0.147,-0.029 0.143,-0.025C0.139,-0.02 0.135,-0.015 0.131,-0.01C0.127,-0.004 0.122,0.001 0.118,0.005C0.113,0.01 0.109,0.012 0.105,0.012C0.099,0.012 0.094,0.01 0.09,0.006C0.086,0.003 0.083,-0.003 0.082,-0.011L0.048,-0.187C0.047,-0.193 0.048,-0.198 0.05,-0.202C0.051,-0.206 0.055,-0.209 0.061,-0.21C0.066,-0.212 0.07,-0.211 0.074,-0.209C0.078,-0.207 0.082,-0.203 0.086,-0.196C0.106,-0.154 0.126,-0.121 0.148,-0.097C0.169,-0.072 0.191,-0.055 0.214,-0.044C0.237,-0.034 0.261,-0.029 0.286,-0.029C0.32,-0.029 0.347,-0.038 0.368,-0.056C0.388,-0.074 0.399,-0.099 0.399,-0.132C0.399,-0.153 0.394,-0.172 0.386,-0.19C0.377,-0.207 0.361,-0.223 0.338,-0.239C0.314,-0.254 0.281,-0.27 0.237,-0.285C0.187,-0.302 0.148,-0.322 0.118,-0.344C0.088,-0.366 0.067,-0.39 0.054,-0.418C0.041,-0.445 0.035,-0.475 0.035,-0.509C0.035,-0.549 0.044,-0.584 0.063,-0.614C0.082,-0.644 0.108,-0.668 0.142,-0.685C0.176,-0.702 0.215,-0.711 0.259,-0.711C0.287,-0.711 0.31,-0.708 0.328,-0.702C0.346,-0.695 0.361,-0.689 0.372,-0.683C0.383,-0.676 0.392,-0.673 0.399,-0.673C0.405,-0.673 0.41,-0.676 0.416,-0.683C0.422,-0.689 0.428,-0.695 0.434,-0.702C0.44,-0.708 0.446,-0.712 0.453,-0.712C0.459,-0.712 0.463,-0.71 0.467,-0.706C0.47,-0.702 0.473,-0.695 0.476,-0.685L0.524,-0.508C0.526,-0.501 0.526,-0.495 0.524,-0.491C0.522,-0.487 0.519,-0.483 0.513,-0.481C0.507,-0.479 0.502,-0.48 0.498,-0.482C0.494,-0.484 0.49,-0.489 0.487,-0.495C0.465,-0.538 0.443,-0.573 0.42,-0.599C0.397,-0.624 0.373,-0.643 0.348,-0.654C0.323,-0.665 0.298,-0.67 0.271,-0.67C0.238,-0.67 0.212,-0.66 0.191,-0.64C0.17,-0.62 0.16,-0.593 0.16,-0.559C0.16,-0.538 0.164,-0.518 0.173,-0.5C0.182,-0.483 0.197,-0.466 0.22,-0.45C0.243,-0.434 0.276,-0.418 0.319,-0.402C0.37,-0.383 0.41,-0.363 0.44,-0.341C0.47,-0.319 0.491,-0.296 0.503,-0.27C0.515,-0.244 0.522,-0.215 0.522,-0.183C0.522,-0.146 0.513,-0.113 0.495,-0.084C0.476,-0.054 0.451,-0.031 0.417,-0.014C0.383,0.003 0.343,0.011 0.296,0.012Z" style="fill:rgb(152,128,67);fill-rule:nonzero;"/>
                </g>
            </g>
            <g transform="matrix(101.739,0,0,101.739,8376.36,6071.33)">
                <path d="M0.618,-0.193C0.614,-0.165 0.606,-0.139 0.592,-0.114C0.578,-0.089 0.559,-0.067 0.536,-0.048C0.513,-0.029 0.487,-0.014 0.456,-0.003C0.425,0.008 0.39,0.013 0.352,0.013C0.286,0.013 0.228,-0.002 0.18,-0.033C0.131,-0.063 0.094,-0.105 0.068,-0.159C0.041,-0.212 0.028,-0.274 0.028,-0.345C0.028,-0.398 0.036,-0.446 0.052,-0.491C0.068,-0.536 0.091,-0.575 0.121,-0.608C0.15,-0.641 0.184,-0.666 0.224,-0.684C0.263,-0.702 0.306,-0.712 0.353,-0.712C0.384,-0.712 0.41,-0.708 0.431,-0.702C0.451,-0.695 0.467,-0.689 0.479,-0.682C0.49,-0.676 0.498,-0.673 0.503,-0.673C0.508,-0.673 0.513,-0.676 0.519,-0.682C0.524,-0.689 0.529,-0.695 0.535,-0.702C0.54,-0.708 0.546,-0.711 0.551,-0.711C0.555,-0.711 0.558,-0.71 0.561,-0.707C0.564,-0.704 0.566,-0.699 0.568,-0.69L0.617,-0.508C0.619,-0.502 0.618,-0.497 0.616,-0.492C0.613,-0.487 0.609,-0.485 0.603,-0.484C0.597,-0.483 0.592,-0.483 0.587,-0.486C0.582,-0.488 0.579,-0.493 0.576,-0.5C0.56,-0.543 0.542,-0.576 0.522,-0.601C0.501,-0.626 0.48,-0.644 0.456,-0.655C0.432,-0.666 0.406,-0.672 0.378,-0.672C0.348,-0.672 0.321,-0.665 0.297,-0.651C0.272,-0.638 0.251,-0.618 0.233,-0.593C0.215,-0.567 0.201,-0.537 0.191,-0.5C0.181,-0.465 0.176,-0.424 0.176,-0.379C0.176,-0.311 0.186,-0.253 0.206,-0.206C0.226,-0.159 0.253,-0.123 0.288,-0.099C0.323,-0.075 0.362,-0.063 0.407,-0.063C0.449,-0.063 0.485,-0.074 0.517,-0.097C0.548,-0.12 0.572,-0.153 0.589,-0.197C0.593,-0.203 0.596,-0.206 0.6,-0.208C0.603,-0.21 0.606,-0.21 0.61,-0.209C0.613,-0.209 0.615,-0.207 0.616,-0.204C0.618,-0.201 0.618,-0.197 0.618,-0.193Z" style="fill:rgb(152,128,67);fill-rule:nonzero;"/>
            </g>
            <g transform="matrix(101.739,0,0,101.739,8441.22,6071.33)">
                <path d="M0.168,-0.35L0.572,-0.35L0.572,-0.31L0.168,-0.31L0.168,-0.35ZM0.243,-0.071C0.243,-0.064 0.245,-0.059 0.249,-0.055C0.252,-0.051 0.258,-0.048 0.266,-0.045L0.298,-0.039C0.308,-0.035 0.313,-0.028 0.313,-0.019C0.313,-0.013 0.311,-0.008 0.308,-0.005C0.304,-0.002 0.299,-0 0.292,-0L0.055,-0C0.048,-0 0.042,-0.002 0.039,-0.005C0.035,-0.008 0.033,-0.013 0.033,-0.019C0.033,-0.028 0.038,-0.035 0.049,-0.039L0.081,-0.045C0.089,-0.048 0.094,-0.051 0.098,-0.055C0.101,-0.059 0.103,-0.064 0.103,-0.071L0.103,-0.629C0.103,-0.636 0.101,-0.642 0.098,-0.646C0.095,-0.65 0.089,-0.653 0.082,-0.655L0.049,-0.662C0.038,-0.666 0.033,-0.672 0.033,-0.682C0.033,-0.688 0.035,-0.692 0.039,-0.695C0.042,-0.698 0.048,-0.7 0.055,-0.7L0.292,-0.7C0.299,-0.7 0.304,-0.698 0.308,-0.695C0.311,-0.692 0.313,-0.688 0.313,-0.682C0.313,-0.672 0.308,-0.666 0.298,-0.662L0.265,-0.655C0.257,-0.653 0.252,-0.65 0.248,-0.646C0.245,-0.642 0.243,-0.636 0.243,-0.629L0.243,-0.071ZM0.654,-0.071C0.654,-0.064 0.656,-0.059 0.66,-0.055C0.663,-0.051 0.669,-0.048 0.677,-0.045L0.709,-0.039C0.719,-0.035 0.724,-0.028 0.724,-0.019C0.724,-0.013 0.722,-0.008 0.719,-0.005C0.715,-0.002 0.71,-0 0.703,-0L0.466,-0C0.459,-0 0.453,-0.002 0.45,-0.005C0.446,-0.008 0.444,-0.013 0.444,-0.019C0.444,-0.028 0.449,-0.035 0.46,-0.039L0.492,-0.045C0.5,-0.048 0.505,-0.051 0.509,-0.055C0.512,-0.059 0.514,-0.064 0.514,-0.071L0.514,-0.629C0.514,-0.636 0.512,-0.642 0.509,-0.646C0.506,-0.65 0.5,-0.653 0.493,-0.655L0.46,-0.662C0.449,-0.666 0.444,-0.672 0.444,-0.682C0.444,-0.688 0.446,-0.692 0.45,-0.695C0.453,-0.698 0.459,-0.7 0.466,-0.7L0.703,-0.7C0.71,-0.7 0.715,-0.698 0.719,-0.695C0.722,-0.692 0.724,-0.688 0.724,-0.682C0.724,-0.672 0.719,-0.666 0.709,-0.662L0.676,-0.655C0.668,-0.653 0.663,-0.65 0.659,-0.646C0.656,-0.642 0.654,-0.636 0.654,-0.629L0.654,-0.071Z" style="fill:rgb(152,128,67);fill-rule:nonzero;"/>
            </g>
            <g transform="matrix(101.739,0,0,101.739,8518.28,6071.33)">
                <path d="M0.241,-0.071C0.241,-0.064 0.242,-0.059 0.246,-0.055C0.25,-0.051 0.256,-0.048 0.264,-0.045L0.295,-0.039C0.305,-0.035 0.311,-0.028 0.311,-0.019C0.311,-0.013 0.309,-0.008 0.305,-0.005C0.302,-0.002 0.297,-0 0.29,-0L0.052,-0C0.045,-0 0.04,-0.002 0.036,-0.005C0.032,-0.008 0.031,-0.013 0.031,-0.019C0.031,-0.028 0.036,-0.035 0.047,-0.039L0.078,-0.045C0.086,-0.048 0.092,-0.051 0.095,-0.055C0.099,-0.059 0.101,-0.064 0.101,-0.071L0.101,-0.629C0.101,-0.636 0.099,-0.642 0.096,-0.646C0.092,-0.65 0.087,-0.653 0.079,-0.655L0.047,-0.662C0.036,-0.666 0.031,-0.672 0.031,-0.682C0.031,-0.688 0.032,-0.692 0.036,-0.695C0.04,-0.698 0.045,-0.7 0.052,-0.7L0.29,-0.7C0.297,-0.7 0.302,-0.698 0.305,-0.695C0.309,-0.692 0.311,-0.688 0.311,-0.682C0.311,-0.672 0.305,-0.666 0.295,-0.662L0.263,-0.655C0.255,-0.653 0.249,-0.65 0.246,-0.646C0.242,-0.642 0.241,-0.636 0.241,-0.629L0.241,-0.071Z" style="fill:rgb(152,128,67);fill-rule:nonzero;"/>
            </g>
            <g transform="matrix(101.739,0,0,101.739,8553.03,6071.33)">
                <path d="M0.13,-0.7L0.495,-0.7C0.504,-0.7 0.512,-0.701 0.519,-0.704C0.526,-0.707 0.532,-0.709 0.538,-0.712C0.543,-0.715 0.548,-0.716 0.553,-0.716C0.56,-0.716 0.566,-0.714 0.57,-0.71C0.574,-0.706 0.577,-0.698 0.579,-0.687L0.61,-0.527C0.612,-0.519 0.611,-0.513 0.609,-0.508C0.607,-0.503 0.603,-0.5 0.597,-0.499C0.592,-0.498 0.587,-0.499 0.583,-0.501C0.579,-0.503 0.576,-0.508 0.573,-0.515C0.557,-0.556 0.542,-0.586 0.529,-0.607C0.516,-0.628 0.502,-0.642 0.489,-0.65C0.476,-0.657 0.462,-0.661 0.447,-0.661L0.383,-0.661L0.383,-0.07C0.383,-0.064 0.384,-0.058 0.388,-0.054C0.392,-0.05 0.397,-0.047 0.405,-0.045L0.442,-0.039C0.452,-0.035 0.457,-0.028 0.457,-0.019C0.457,-0.006 0.45,-0 0.436,-0L0.19,-0C0.183,-0 0.178,-0.002 0.174,-0.005C0.17,-0.008 0.169,-0.013 0.169,-0.019C0.169,-0.028 0.174,-0.035 0.184,-0.039L0.221,-0.045C0.228,-0.047 0.234,-0.05 0.237,-0.054C0.241,-0.058 0.243,-0.064 0.243,-0.07L0.243,-0.661L0.177,-0.661C0.162,-0.661 0.148,-0.657 0.136,-0.649C0.123,-0.641 0.11,-0.627 0.097,-0.606C0.083,-0.585 0.069,-0.555 0.053,-0.515C0.05,-0.508 0.046,-0.503 0.042,-0.501C0.038,-0.499 0.033,-0.498 0.028,-0.499C0.023,-0.5 0.019,-0.503 0.017,-0.508C0.014,-0.513 0.014,-0.519 0.016,-0.527L0.046,-0.688C0.048,-0.698 0.051,-0.706 0.056,-0.71C0.059,-0.714 0.065,-0.717 0.072,-0.717C0.077,-0.717 0.082,-0.715 0.087,-0.713C0.093,-0.71 0.099,-0.707 0.106,-0.704C0.113,-0.701 0.121,-0.7 0.13,-0.7Z" style="fill:rgb(152,128,67);fill-rule:nonzero;"/>
            </g>
            <g transform="matrix(101.739,0,0,101.739,8616.61,6071.33)">
                <path d="M0.615,-0.458C0.615,-0.425 0.608,-0.396 0.594,-0.369C0.58,-0.343 0.561,-0.321 0.536,-0.303C0.511,-0.285 0.482,-0.273 0.448,-0.267C0.437,-0.265 0.428,-0.263 0.419,-0.261C0.41,-0.259 0.401,-0.257 0.391,-0.256C0.381,-0.255 0.37,-0.255 0.357,-0.255C0.335,-0.255 0.315,-0.256 0.297,-0.259C0.279,-0.262 0.262,-0.266 0.247,-0.272C0.232,-0.278 0.219,-0.284 0.207,-0.293L0.211,-0.328C0.222,-0.319 0.234,-0.313 0.247,-0.308C0.26,-0.304 0.273,-0.301 0.287,-0.299C0.3,-0.297 0.314,-0.296 0.327,-0.296C0.372,-0.296 0.407,-0.309 0.434,-0.336C0.46,-0.363 0.472,-0.403 0.472,-0.455C0.472,-0.495 0.465,-0.53 0.449,-0.561C0.433,-0.592 0.411,-0.617 0.383,-0.634C0.355,-0.652 0.322,-0.661 0.285,-0.661L0.242,-0.661L0.242,-0.074C0.242,-0.066 0.243,-0.059 0.247,-0.055C0.25,-0.051 0.256,-0.048 0.264,-0.045L0.296,-0.039C0.301,-0.037 0.305,-0.034 0.308,-0.031C0.31,-0.028 0.312,-0.024 0.312,-0.019C0.312,-0.006 0.305,-0 0.291,-0L0.053,-0C0.046,-0 0.041,-0.002 0.037,-0.005C0.033,-0.008 0.032,-0.013 0.032,-0.019C0.032,-0.028 0.037,-0.035 0.047,-0.039L0.079,-0.045C0.087,-0.048 0.093,-0.051 0.096,-0.055C0.1,-0.059 0.102,-0.066 0.102,-0.074L0.102,-0.629C0.102,-0.636 0.1,-0.642 0.096,-0.646C0.093,-0.65 0.087,-0.653 0.079,-0.655L0.047,-0.662C0.037,-0.666 0.032,-0.672 0.032,-0.682C0.032,-0.688 0.033,-0.692 0.037,-0.695C0.041,-0.698 0.046,-0.7 0.053,-0.7L0.289,-0.7C0.358,-0.7 0.416,-0.69 0.465,-0.669C0.513,-0.648 0.55,-0.62 0.576,-0.584C0.602,-0.547 0.615,-0.505 0.615,-0.458ZM0.346,-0.277L0.479,-0.293L0.607,-0.071C0.613,-0.061 0.619,-0.054 0.625,-0.05C0.632,-0.045 0.641,-0.042 0.651,-0.039C0.658,-0.037 0.662,-0.034 0.665,-0.031C0.668,-0.028 0.669,-0.024 0.669,-0.019C0.669,-0.013 0.667,-0.008 0.664,-0.005C0.66,-0.002 0.655,-0 0.648,-0L0.44,-0C0.426,-0 0.42,-0.006 0.42,-0.019C0.42,-0.023 0.421,-0.026 0.423,-0.028C0.425,-0.03 0.428,-0.032 0.432,-0.034L0.452,-0.039C0.459,-0.041 0.463,-0.044 0.464,-0.049C0.465,-0.053 0.464,-0.06 0.459,-0.07L0.346,-0.277Z" style="fill:rgb(152,128,67);fill-rule:nonzero;"/>
            </g>
            <g transform="matrix(101.739,0,0,101.739,8684.88,6071.33)">
                <path d="M0.143,-0.283L0.415,-0.283L0.417,-0.244L0.141,-0.244L0.143,-0.283ZM0.19,-0.019C0.19,-0.013 0.188,-0.008 0.185,-0.005C0.182,-0.002 0.177,-0 0.17,-0L0.02,-0C0.013,-0 0.008,-0.002 0.005,-0.005C0.001,-0.008 -0,-0.013 -0.001,-0.019C-0,-0.023 0.001,-0.026 0.003,-0.029C0.005,-0.032 0.009,-0.035 0.013,-0.037L0.03,-0.043C0.039,-0.047 0.048,-0.054 0.055,-0.063C0.062,-0.071 0.068,-0.087 0.075,-0.108L0.227,-0.614C0.231,-0.627 0.232,-0.637 0.229,-0.644C0.226,-0.651 0.22,-0.656 0.21,-0.66C0.203,-0.663 0.198,-0.667 0.195,-0.67C0.192,-0.673 0.19,-0.677 0.19,-0.682C0.19,-0.688 0.192,-0.692 0.196,-0.695C0.199,-0.698 0.204,-0.7 0.212,-0.7L0.428,-0.7C0.435,-0.7 0.44,-0.698 0.444,-0.695C0.448,-0.692 0.45,-0.688 0.45,-0.682C0.45,-0.677 0.448,-0.673 0.445,-0.67C0.442,-0.666 0.437,-0.663 0.43,-0.661C0.422,-0.658 0.417,-0.654 0.415,-0.65C0.413,-0.646 0.414,-0.638 0.417,-0.627L0.588,-0.086C0.593,-0.071 0.598,-0.06 0.604,-0.054C0.61,-0.047 0.617,-0.042 0.627,-0.039C0.633,-0.036 0.637,-0.033 0.639,-0.03C0.642,-0.027 0.643,-0.023 0.643,-0.019C0.643,-0.013 0.641,-0.009 0.638,-0.005C0.634,-0.002 0.629,-0 0.622,-0L0.414,-0C0.407,-0 0.402,-0.002 0.398,-0.005C0.395,-0.008 0.393,-0.013 0.393,-0.019C0.393,-0.023 0.394,-0.027 0.397,-0.03C0.4,-0.033 0.404,-0.035 0.409,-0.038L0.434,-0.043C0.441,-0.045 0.445,-0.048 0.447,-0.054C0.448,-0.059 0.447,-0.069 0.443,-0.082L0.268,-0.643L0.282,-0.656L0.118,-0.114C0.115,-0.1 0.113,-0.088 0.115,-0.079C0.117,-0.069 0.121,-0.062 0.128,-0.056C0.134,-0.05 0.143,-0.046 0.153,-0.043L0.175,-0.037C0.181,-0.035 0.185,-0.033 0.187,-0.029C0.189,-0.027 0.19,-0.023 0.19,-0.019Z" style="fill:rgb(152,128,67);fill-rule:nonzero;"/>
            </g>
            <g transform="matrix(101.739,0,0,101.739,8750.55,6071.33)">
                <path d="M0.234,-0.019C0.234,-0.013 0.232,-0.008 0.228,-0.005C0.225,-0.002 0.22,-0 0.213,-0L0.044,-0C0.037,-0 0.031,-0.002 0.028,-0.005C0.025,-0.008 0.023,-0.013 0.023,-0.019C0.023,-0.028 0.029,-0.034 0.04,-0.039L0.066,-0.047C0.077,-0.05 0.086,-0.056 0.093,-0.064C0.1,-0.072 0.103,-0.084 0.103,-0.099L0.103,-0.556C0.103,-0.566 0.103,-0.574 0.102,-0.579C0.101,-0.584 0.098,-0.59 0.093,-0.596L0.049,-0.659C0.045,-0.664 0.042,-0.668 0.04,-0.672C0.038,-0.676 0.037,-0.68 0.037,-0.685C0.037,-0.69 0.038,-0.693 0.042,-0.696C0.045,-0.699 0.049,-0.7 0.055,-0.7L0.178,-0.7C0.185,-0.7 0.191,-0.699 0.195,-0.696C0.2,-0.693 0.204,-0.689 0.209,-0.682L0.567,-0.137L0.554,-0.096L0.554,-0.601C0.554,-0.616 0.551,-0.628 0.544,-0.636C0.537,-0.644 0.527,-0.65 0.515,-0.654L0.482,-0.661C0.47,-0.666 0.465,-0.673 0.465,-0.682C0.465,-0.688 0.466,-0.692 0.47,-0.695C0.473,-0.698 0.478,-0.7 0.486,-0.7L0.655,-0.7C0.662,-0.7 0.667,-0.698 0.67,-0.695C0.674,-0.692 0.676,-0.688 0.676,-0.682C0.676,-0.673 0.67,-0.666 0.659,-0.661L0.633,-0.654C0.621,-0.65 0.612,-0.644 0.605,-0.636C0.598,-0.628 0.595,-0.616 0.595,-0.601L0.595,-0.128C0.595,-0.119 0.595,-0.112 0.597,-0.106C0.599,-0.1 0.601,-0.094 0.604,-0.089L0.631,-0.045C0.636,-0.037 0.639,-0.032 0.641,-0.028C0.642,-0.024 0.643,-0.02 0.643,-0.017C0.643,-0.012 0.641,-0.008 0.638,-0.005C0.635,-0.002 0.63,-0 0.624,-0L0.496,-0C0.484,-0 0.478,-0.005 0.478,-0.016C0.478,-0.02 0.477,-0.025 0.475,-0.029C0.474,-0.033 0.47,-0.04 0.464,-0.049L0.117,-0.576L0.145,-0.597L0.145,-0.099C0.145,-0.084 0.148,-0.072 0.155,-0.064C0.162,-0.056 0.171,-0.051 0.183,-0.047L0.217,-0.039C0.228,-0.034 0.234,-0.028 0.234,-0.019Z" style="fill:rgb(152,128,67);fill-rule:nonzero;"/>
            </g>
            <g transform="matrix(101.739,0,0,101.739,8821.41,6071.33)">
                <path d="M0.143,-0.283L0.415,-0.283L0.417,-0.244L0.141,-0.244L0.143,-0.283ZM0.19,-0.019C0.19,-0.013 0.188,-0.008 0.185,-0.005C0.182,-0.002 0.177,-0 0.17,-0L0.02,-0C0.013,-0 0.008,-0.002 0.005,-0.005C0.001,-0.008 -0,-0.013 -0.001,-0.019C-0,-0.023 0.001,-0.026 0.003,-0.029C0.005,-0.032 0.009,-0.035 0.013,-0.037L0.03,-0.043C0.039,-0.047 0.048,-0.054 0.055,-0.063C0.062,-0.071 0.068,-0.087 0.075,-0.108L0.227,-0.614C0.231,-0.627 0.232,-0.637 0.229,-0.644C0.226,-0.651 0.22,-0.656 0.21,-0.66C0.203,-0.663 0.198,-0.667 0.195,-0.67C0.192,-0.673 0.19,-0.677 0.19,-0.682C0.19,-0.688 0.192,-0.692 0.196,-0.695C0.199,-0.698 0.204,-0.7 0.212,-0.7L0.428,-0.7C0.435,-0.7 0.44,-0.698 0.444,-0.695C0.448,-0.692 0.45,-0.688 0.45,-0.682C0.45,-0.677 0.448,-0.673 0.445,-0.67C0.442,-0.666 0.437,-0.663 0.43,-0.661C0.422,-0.658 0.417,-0.654 0.415,-0.65C0.413,-0.646 0.414,-0.638 0.417,-0.627L0.588,-0.086C0.593,-0.071 0.598,-0.06 0.604,-0.054C0.61,-0.047 0.617,-0.042 0.627,-0.039C0.633,-0.036 0.637,-0.033 0.639,-0.03C0.642,-0.027 0.643,-0.023 0.643,-0.019C0.643,-0.013 0.641,-0.009 0.638,-0.005C0.634,-0.002 0.629,-0 0.622,-0L0.414,-0C0.407,-0 0.402,-0.002 0.398,-0.005C0.395,-0.008 0.393,-0.013 0.393,-0.019C0.393,-0.023 0.394,-0.027 0.397,-0.03C0.4,-0.033 0.404,-0.035 0.409,-0.038L0.434,-0.043C0.441,-0.045 0.445,-0.048 0.447,-0.054C0.448,-0.059 0.447,-0.069 0.443,-0.082L0.268,-0.643L0.282,-0.656L0.118,-0.114C0.115,-0.1 0.113,-0.088 0.115,-0.079C0.117,-0.069 0.121,-0.062 0.128,-0.056C0.134,-0.05 0.143,-0.046 0.153,-0.043L0.175,-0.037C0.181,-0.035 0.185,-0.033 0.187,-0.029C0.189,-0.027 0.19,-0.023 0.19,-0.019Z" style="fill:rgb(152,128,67);fill-rule:nonzero;"/>
            </g>
            <g transform="matrix(101.739,0,0,101.739,8887.09,6071.33)">
                <path d="M0.62,-0.016C0.62,-0.006 0.618,0.001 0.614,0.005C0.61,0.01 0.605,0.012 0.598,0.012C0.592,0.012 0.585,0.009 0.578,0.004C0.57,-0.001 0.563,-0.007 0.555,-0.014C0.547,-0.021 0.539,-0.027 0.531,-0.032C0.523,-0.037 0.517,-0.04 0.511,-0.04C0.507,-0.04 0.5,-0.037 0.493,-0.032C0.485,-0.027 0.474,-0.021 0.462,-0.015C0.449,-0.008 0.434,-0.003 0.415,0.002C0.397,0.007 0.375,0.01 0.349,0.01C0.301,0.01 0.256,0.001 0.217,-0.016C0.177,-0.033 0.143,-0.057 0.115,-0.088C0.087,-0.119 0.065,-0.156 0.05,-0.199C0.035,-0.242 0.028,-0.289 0.028,-0.341C0.028,-0.395 0.036,-0.445 0.053,-0.49C0.07,-0.535 0.094,-0.574 0.124,-0.607C0.155,-0.64 0.191,-0.665 0.232,-0.683C0.274,-0.701 0.319,-0.71 0.369,-0.71C0.4,-0.71 0.426,-0.707 0.446,-0.7C0.466,-0.693 0.482,-0.687 0.493,-0.68C0.504,-0.673 0.512,-0.67 0.517,-0.67C0.523,-0.67 0.529,-0.673 0.536,-0.68C0.543,-0.687 0.549,-0.693 0.556,-0.7C0.563,-0.706 0.57,-0.71 0.576,-0.71C0.58,-0.71 0.583,-0.708 0.586,-0.705C0.589,-0.702 0.591,-0.696 0.594,-0.687L0.635,-0.497C0.637,-0.491 0.636,-0.486 0.634,-0.482C0.632,-0.478 0.628,-0.475 0.623,-0.473C0.618,-0.472 0.613,-0.473 0.608,-0.475C0.604,-0.477 0.6,-0.482 0.597,-0.488C0.579,-0.533 0.559,-0.57 0.537,-0.597C0.514,-0.624 0.49,-0.643 0.464,-0.655C0.438,-0.667 0.409,-0.673 0.38,-0.673C0.339,-0.673 0.303,-0.661 0.272,-0.636C0.241,-0.613 0.217,-0.578 0.199,-0.532C0.181,-0.486 0.172,-0.43 0.172,-0.364C0.172,-0.296 0.182,-0.238 0.202,-0.19C0.222,-0.142 0.248,-0.105 0.281,-0.079C0.314,-0.053 0.35,-0.04 0.389,-0.04C0.403,-0.04 0.416,-0.042 0.429,-0.045C0.441,-0.048 0.452,-0.052 0.461,-0.058C0.47,-0.064 0.478,-0.071 0.483,-0.079C0.488,-0.087 0.491,-0.097 0.491,-0.108L0.491,-0.253C0.491,-0.26 0.489,-0.265 0.486,-0.268C0.482,-0.272 0.477,-0.274 0.469,-0.276L0.427,-0.282C0.421,-0.284 0.416,-0.286 0.413,-0.29C0.41,-0.293 0.408,-0.297 0.408,-0.302C0.408,-0.307 0.41,-0.311 0.413,-0.314C0.417,-0.317 0.422,-0.319 0.43,-0.319L0.658,-0.319C0.665,-0.319 0.671,-0.317 0.674,-0.314C0.677,-0.311 0.679,-0.307 0.679,-0.302C0.679,-0.297 0.678,-0.293 0.675,-0.29C0.673,-0.287 0.669,-0.285 0.664,-0.283L0.638,-0.278C0.632,-0.276 0.628,-0.273 0.625,-0.27C0.621,-0.266 0.62,-0.26 0.62,-0.253L0.62,-0.016Z" style="fill:rgb(152,128,67);fill-rule:nonzero;"/>
            </g>
            <g transform="matrix(101.739,0,0,101.739,8956.73,6071.33)">
                <path d="M0.143,-0.283L0.415,-0.283L0.417,-0.244L0.141,-0.244L0.143,-0.283ZM0.19,-0.019C0.19,-0.013 0.188,-0.008 0.185,-0.005C0.182,-0.002 0.177,-0 0.17,-0L0.02,-0C0.013,-0 0.008,-0.002 0.005,-0.005C0.001,-0.008 -0,-0.013 -0.001,-0.019C-0,-0.023 0.001,-0.026 0.003,-0.029C0.005,-0.032 0.009,-0.035 0.013,-0.037L0.03,-0.043C0.039,-0.047 0.048,-0.054 0.055,-0.063C0.062,-0.071 0.068,-0.087 0.075,-0.108L0.227,-0.614C0.231,-0.627 0.232,-0.637 0.229,-0.644C0.226,-0.651 0.22,-0.656 0.21,-0.66C0.203,-0.663 0.198,-0.667 0.195,-0.67C0.192,-0.673 0.19,-0.677 0.19,-0.682C0.19,-0.688 0.192,-0.692 0.196,-0.695C0.199,-0.698 0.204,-0.7 0.212,-0.7L0.428,-0.7C0.435,-0.7 0.44,-0.698 0.444,-0.695C0.448,-0.692 0.45,-0.688 0.45,-0.682C0.45,-0.677 0.448,-0.673 0.445,-0.67C0.442,-0.666 0.437,-0.663 0.43,-0.661C0.422,-0.658 0.417,-0.654 0.415,-0.65C0.413,-0.646 0.414,-0.638 0.417,-0.627L0.588,-0.086C0.593,-0.071 0.598,-0.06 0.604,-0.054C0.61,-0.047 0.617,-0.042 0.627,-0.039C0.633,-0.036 0.637,-0.033 0.639,-0.03C0.642,-0.027 0.643,-0.023 0.643,-0.019C0.643,-0.013 0.641,-0.009 0.638,-0.005C0.634,-0.002 0.629,-0 0.622,-0L0.414,-0C0.407,-0 0.402,-0.002 0.398,-0.005C0.395,-0.008 0.393,-0.013 0.393,-0.019C0.393,-0.023 0.394,-0.027 0.397,-0.03C0.4,-0.033 0.404,-0.035 0.409,-0.038L0.434,-0.043C0.441,-0.045 0.445,-0.048 0.447,-0.054C0.448,-0.059 0.447,-0.069 0.443,-0.082L0.268,-0.643L0.282,-0.656L0.118,-0.114C0.115,-0.1 0.113,-0.088 0.115,-0.079C0.117,-0.069 0.121,-0.062 0.128,-0.056C0.134,-0.05 0.143,-0.046 0.153,-0.043L0.175,-0.037C0.181,-0.035 0.185,-0.033 0.187,-0.029C0.189,-0.027 0.19,-0.023 0.19,-0.019Z" style="fill:rgb(152,128,67);fill-rule:nonzero;"/>
            </g>
            <g transform="matrix(101.739,0,0,101.739,9022.4,6071.33)">
                <path d="M0.615,-0.458C0.615,-0.425 0.608,-0.396 0.594,-0.369C0.58,-0.343 0.561,-0.321 0.536,-0.303C0.511,-0.285 0.482,-0.273 0.448,-0.267C0.437,-0.265 0.428,-0.263 0.419,-0.261C0.41,-0.259 0.401,-0.257 0.391,-0.256C0.381,-0.255 0.37,-0.255 0.357,-0.255C0.335,-0.255 0.315,-0.256 0.297,-0.259C0.279,-0.262 0.262,-0.266 0.247,-0.272C0.232,-0.278 0.219,-0.284 0.207,-0.293L0.211,-0.328C0.222,-0.319 0.234,-0.313 0.247,-0.308C0.26,-0.304 0.273,-0.301 0.287,-0.299C0.3,-0.297 0.314,-0.296 0.327,-0.296C0.372,-0.296 0.407,-0.309 0.434,-0.336C0.46,-0.363 0.472,-0.403 0.472,-0.455C0.472,-0.495 0.465,-0.53 0.449,-0.561C0.433,-0.592 0.411,-0.617 0.383,-0.634C0.355,-0.652 0.322,-0.661 0.285,-0.661L0.242,-0.661L0.242,-0.074C0.242,-0.066 0.243,-0.059 0.247,-0.055C0.25,-0.051 0.256,-0.048 0.264,-0.045L0.296,-0.039C0.301,-0.037 0.305,-0.034 0.308,-0.031C0.31,-0.028 0.312,-0.024 0.312,-0.019C0.312,-0.006 0.305,-0 0.291,-0L0.053,-0C0.046,-0 0.041,-0.002 0.037,-0.005C0.033,-0.008 0.032,-0.013 0.032,-0.019C0.032,-0.028 0.037,-0.035 0.047,-0.039L0.079,-0.045C0.087,-0.048 0.093,-0.051 0.096,-0.055C0.1,-0.059 0.102,-0.066 0.102,-0.074L0.102,-0.629C0.102,-0.636 0.1,-0.642 0.096,-0.646C0.093,-0.65 0.087,-0.653 0.079,-0.655L0.047,-0.662C0.037,-0.666 0.032,-0.672 0.032,-0.682C0.032,-0.688 0.033,-0.692 0.037,-0.695C0.041,-0.698 0.046,-0.7 0.053,-0.7L0.289,-0.7C0.358,-0.7 0.416,-0.69 0.465,-0.669C0.513,-0.648 0.55,-0.62 0.576,-0.584C0.602,-0.547 0.615,-0.505 0.615,-0.458ZM0.346,-0.277L0.479,-0.293L0.607,-0.071C0.613,-0.061 0.619,-0.054 0.625,-0.05C0.632,-0.045 0.641,-0.042 0.651,-0.039C0.658,-0.037 0.662,-0.034 0.665,-0.031C0.668,-0.028 0.669,-0.024 0.669,-0.019C0.669,-0.013 0.667,-0.008 0.664,-0.005C0.66,-0.002 0.655,-0 0.648,-0L0.44,-0C0.426,-0 0.42,-0.006 0.42,-0.019C0.42,-0.023 0.421,-0.026 0.423,-0.028C0.425,-0.03 0.428,-0.032 0.432,-0.034L0.452,-0.039C0.459,-0.041 0.463,-0.044 0.464,-0.049C0.465,-0.053 0.464,-0.06 0.459,-0.07L0.346,-0.277Z" style="fill:rgb(152,128,67);fill-rule:nonzero;"/>
            </g>
            <g transform="matrix(101.739,0,0,101.739,9090.67,6071.33)">
                <path d="M0.241,-0.071C0.241,-0.064 0.242,-0.059 0.246,-0.055C0.25,-0.051 0.256,-0.048 0.264,-0.045L0.295,-0.039C0.305,-0.035 0.311,-0.028 0.311,-0.019C0.311,-0.013 0.309,-0.008 0.305,-0.005C0.302,-0.002 0.297,-0 0.29,-0L0.052,-0C0.045,-0 0.04,-0.002 0.036,-0.005C0.032,-0.008 0.031,-0.013 0.031,-0.019C0.031,-0.028 0.036,-0.035 0.047,-0.039L0.078,-0.045C0.086,-0.048 0.092,-0.051 0.095,-0.055C0.099,-0.059 0.101,-0.064 0.101,-0.071L0.101,-0.629C0.101,-0.636 0.099,-0.642 0.096,-0.646C0.092,-0.65 0.087,-0.653 0.079,-0.655L0.047,-0.662C0.036,-0.666 0.031,-0.672 0.031,-0.682C0.031,-0.688 0.032,-0.692 0.036,-0.695C0.04,-0.698 0.045,-0.7 0.052,-0.7L0.29,-0.7C0.297,-0.7 0.302,-0.698 0.305,-0.695C0.309,-0.692 0.311,-0.688 0.311,-0.682C0.311,-0.672 0.305,-0.666 0.295,-0.662L0.263,-0.655C0.255,-0.653 0.249,-0.65 0.246,-0.646C0.242,-0.642 0.241,-0.636 0.241,-0.629L0.241,-0.071Z" style="fill:rgb(152,128,67);fill-rule:nonzero;"/>
            </g>
            <g transform="matrix(101.739,0,0,101.739,8558.45,6173.07)">
                <path d="M0.615,-0.458C0.615,-0.425 0.608,-0.396 0.594,-0.369C0.58,-0.343 0.561,-0.321 0.536,-0.303C0.511,-0.285 0.482,-0.273 0.448,-0.267C0.437,-0.265 0.428,-0.263 0.419,-0.261C0.41,-0.259 0.401,-0.257 0.391,-0.256C0.381,-0.255 0.37,-0.255 0.357,-0.255C0.335,-0.255 0.315,-0.256 0.297,-0.259C0.279,-0.262 0.262,-0.266 0.247,-0.272C0.232,-0.278 0.219,-0.284 0.207,-0.293L0.211,-0.328C0.222,-0.319 0.234,-0.313 0.247,-0.308C0.26,-0.304 0.273,-0.301 0.287,-0.299C0.3,-0.297 0.314,-0.296 0.327,-0.296C0.372,-0.296 0.407,-0.309 0.434,-0.336C0.46,-0.363 0.472,-0.403 0.472,-0.455C0.472,-0.495 0.465,-0.53 0.449,-0.561C0.433,-0.592 0.411,-0.617 0.383,-0.634C0.355,-0.652 0.322,-0.661 0.285,-0.661L0.242,-0.661L0.242,-0.074C0.242,-0.066 0.243,-0.059 0.247,-0.055C0.25,-0.051 0.256,-0.048 0.264,-0.045L0.296,-0.039C0.301,-0.037 0.305,-0.034 0.308,-0.031C0.31,-0.028 0.312,-0.024 0.312,-0.019C0.312,-0.006 0.305,-0 0.291,-0L0.053,-0C0.046,-0 0.041,-0.002 0.037,-0.005C0.033,-0.008 0.032,-0.013 0.032,-0.019C0.032,-0.028 0.037,-0.035 0.047,-0.039L0.079,-0.045C0.087,-0.048 0.093,-0.051 0.096,-0.055C0.1,-0.059 0.102,-0.066 0.102,-0.074L0.102,-0.629C0.102,-0.636 0.1,-0.642 0.096,-0.646C0.093,-0.65 0.087,-0.653 0.079,-0.655L0.047,-0.662C0.037,-0.666 0.032,-0.672 0.032,-0.682C0.032,-0.688 0.033,-0.692 0.037,-0.695C0.041,-0.698 0.046,-0.7 0.053,-0.7L0.289,-0.7C0.358,-0.7 0.416,-0.69 0.465,-0.669C0.513,-0.648 0.55,-0.62 0.576,-0.584C0.602,-0.547 0.615,-0.505 0.615,-0.458ZM0.346,-0.277L0.479,-0.293L0.607,-0.071C0.613,-0.061 0.619,-0.054 0.625,-0.05C0.632,-0.045 0.641,-0.042 0.651,-0.039C0.658,-0.037 0.662,-0.034 0.665,-0.031C0.668,-0.028 0.669,-0.024 0.669,-0.019C0.669,-0.013 0.667,-0.008 0.664,-0.005C0.66,-0.002 0.655,-0 0.648,-0L0.44,-0C0.426,-0 0.42,-0.006 0.42,-0.019C0.42,-0.023 0.421,-0.026 0.423,-0.028C0.425,-0.03 0.428,-0.032 0.432,-0.034L0.452,-0.039C0.459,-0.041 0.463,-0.044 0.464,-0.049C0.465,-0.053 0.464,-0.06 0.459,-0.07L0.346,-0.277Z" style="fill:rgb(152,128,67);fill-rule:nonzero;"/>
            </g>
            <g transform="matrix(101.739,0,0,101.739,8626.71,6173.07)">
                <path d="M0.143,-0.283L0.415,-0.283L0.417,-0.244L0.141,-0.244L0.143,-0.283ZM0.19,-0.019C0.19,-0.013 0.188,-0.008 0.185,-0.005C0.182,-0.002 0.177,-0 0.17,-0L0.02,-0C0.013,-0 0.008,-0.002 0.005,-0.005C0.001,-0.008 -0,-0.013 -0.001,-0.019C-0,-0.023 0.001,-0.026 0.003,-0.029C0.005,-0.032 0.009,-0.035 0.013,-0.037L0.03,-0.043C0.039,-0.047 0.048,-0.054 0.055,-0.063C0.062,-0.071 0.068,-0.087 0.075,-0.108L0.227,-0.614C0.231,-0.627 0.232,-0.637 0.229,-0.644C0.226,-0.651 0.22,-0.656 0.21,-0.66C0.203,-0.663 0.198,-0.667 0.195,-0.67C0.192,-0.673 0.19,-0.677 0.19,-0.682C0.19,-0.688 0.192,-0.692 0.196,-0.695C0.199,-0.698 0.204,-0.7 0.212,-0.7L0.428,-0.7C0.435,-0.7 0.44,-0.698 0.444,-0.695C0.448,-0.692 0.45,-0.688 0.45,-0.682C0.45,-0.677 0.448,-0.673 0.445,-0.67C0.442,-0.666 0.437,-0.663 0.43,-0.661C0.422,-0.658 0.417,-0.654 0.415,-0.65C0.413,-0.646 0.414,-0.638 0.417,-0.627L0.588,-0.086C0.593,-0.071 0.598,-0.06 0.604,-0.054C0.61,-0.047 0.617,-0.042 0.627,-0.039C0.633,-0.036 0.637,-0.033 0.639,-0.03C0.642,-0.027 0.643,-0.023 0.643,-0.019C0.643,-0.013 0.641,-0.009 0.638,-0.005C0.634,-0.002 0.629,-0 0.622,-0L0.414,-0C0.407,-0 0.402,-0.002 0.398,-0.005C0.395,-0.008 0.393,-0.013 0.393,-0.019C0.393,-0.023 0.394,-0.027 0.397,-0.03C0.4,-0.033 0.404,-0.035 0.409,-0.038L0.434,-0.043C0.441,-0.045 0.445,-0.048 0.447,-0.054C0.448,-0.059 0.447,-0.069 0.443,-0.082L0.268,-0.643L0.282,-0.656L0.118,-0.114C0.115,-0.1 0.113,-0.088 0.115,-0.079C0.117,-0.069 0.121,-0.062 0.128,-0.056C0.134,-0.05 0.143,-0.046 0.153,-0.043L0.175,-0.037C0.181,-0.035 0.185,-0.033 0.187,-0.029C0.189,-0.027 0.19,-0.023 0.19,-0.019Z" style="fill:rgb(152,128,67);fill-rule:nonzero;"/>
            </g>
            <g transform="matrix(101.739,0,0,101.739,8692.38,6173.07)">
                <path d="M0.363,-0.123C0.363,-0.082 0.346,-0.049 0.314,-0.025C0.281,-0.001 0.237,0.011 0.182,0.012C0.13,0.011 0.09,0 0.062,-0.022C0.033,-0.044 0.019,-0.074 0.019,-0.111C0.019,-0.132 0.025,-0.149 0.036,-0.162C0.047,-0.175 0.063,-0.182 0.083,-0.182C0.099,-0.182 0.112,-0.176 0.123,-0.164C0.134,-0.152 0.139,-0.136 0.139,-0.115L0.139,-0.077C0.139,-0.059 0.143,-0.044 0.15,-0.034C0.158,-0.024 0.171,-0.019 0.189,-0.019C0.206,-0.019 0.22,-0.025 0.23,-0.037C0.24,-0.049 0.246,-0.066 0.246,-0.089C0.246,-0.105 0.242,-0.121 0.235,-0.136C0.228,-0.15 0.22,-0.166 0.211,-0.182C0.202,-0.198 0.194,-0.217 0.187,-0.237C0.18,-0.259 0.177,-0.284 0.177,-0.314L0.177,-0.623C0.177,-0.632 0.175,-0.638 0.172,-0.643C0.169,-0.647 0.164,-0.65 0.157,-0.652L0.12,-0.66C0.114,-0.662 0.11,-0.664 0.108,-0.667C0.105,-0.67 0.103,-0.674 0.103,-0.679C0.103,-0.685 0.105,-0.69 0.109,-0.693C0.113,-0.696 0.118,-0.698 0.125,-0.698L0.364,-0.698C0.371,-0.698 0.377,-0.696 0.381,-0.693C0.384,-0.69 0.386,-0.685 0.386,-0.679C0.386,-0.67 0.38,-0.663 0.368,-0.659L0.337,-0.653C0.33,-0.65 0.324,-0.647 0.321,-0.643C0.318,-0.639 0.316,-0.633 0.316,-0.626L0.316,-0.322C0.316,-0.298 0.318,-0.277 0.323,-0.26C0.328,-0.243 0.333,-0.228 0.339,-0.214C0.345,-0.2 0.351,-0.185 0.356,-0.171C0.36,-0.157 0.363,-0.141 0.363,-0.123Z" style="fill:rgb(152,128,67);fill-rule:nonzero;"/>
            </g>
            <g transform="matrix(101.739,0,0,101.739,8735.06,6173.07)">
                <path d="M0.202,-0.262L0.488,-0.576C0.5,-0.588 0.508,-0.6 0.511,-0.611C0.514,-0.622 0.513,-0.631 0.509,-0.639C0.504,-0.647 0.496,-0.653 0.485,-0.657L0.459,-0.662C0.454,-0.664 0.45,-0.667 0.447,-0.67C0.445,-0.673 0.444,-0.677 0.444,-0.682C0.444,-0.688 0.445,-0.692 0.449,-0.695C0.452,-0.698 0.458,-0.7 0.465,-0.7L0.655,-0.7C0.662,-0.7 0.667,-0.698 0.671,-0.695C0.674,-0.692 0.676,-0.688 0.676,-0.682C0.676,-0.677 0.674,-0.672 0.67,-0.669C0.666,-0.666 0.661,-0.663 0.654,-0.66C0.646,-0.658 0.638,-0.655 0.63,-0.651C0.623,-0.647 0.615,-0.641 0.606,-0.635C0.597,-0.628 0.586,-0.62 0.575,-0.609C0.563,-0.598 0.55,-0.585 0.534,-0.569L0.216,-0.226L0.202,-0.262ZM0.317,-0.372L0.419,-0.466L0.64,-0.079C0.647,-0.067 0.653,-0.058 0.66,-0.053C0.667,-0.047 0.676,-0.043 0.688,-0.041C0.695,-0.038 0.699,-0.035 0.702,-0.032C0.705,-0.029 0.706,-0.024 0.706,-0.019C0.706,-0.013 0.704,-0.008 0.701,-0.005C0.697,-0.002 0.692,-0 0.685,-0L0.455,-0C0.448,-0 0.443,-0.002 0.44,-0.005C0.436,-0.008 0.435,-0.013 0.435,-0.019C0.435,-0.024 0.436,-0.028 0.438,-0.031C0.44,-0.034 0.444,-0.036 0.448,-0.038L0.478,-0.043C0.485,-0.045 0.488,-0.048 0.489,-0.053C0.49,-0.058 0.487,-0.066 0.481,-0.078L0.317,-0.372ZM0.242,-0.071C0.242,-0.065 0.243,-0.059 0.247,-0.055C0.25,-0.051 0.256,-0.047 0.264,-0.045L0.296,-0.039C0.301,-0.037 0.305,-0.034 0.308,-0.031C0.311,-0.028 0.312,-0.024 0.312,-0.019C0.312,-0.013 0.31,-0.008 0.307,-0.005C0.303,-0.002 0.298,-0 0.291,-0L0.053,-0C0.046,-0 0.041,-0.002 0.037,-0.005C0.033,-0.008 0.032,-0.013 0.032,-0.019C0.032,-0.028 0.037,-0.035 0.047,-0.039L0.08,-0.045C0.088,-0.047 0.093,-0.051 0.097,-0.055C0.1,-0.059 0.102,-0.064 0.102,-0.071L0.102,-0.629C0.102,-0.636 0.1,-0.642 0.097,-0.646C0.093,-0.65 0.088,-0.653 0.08,-0.655L0.047,-0.662C0.037,-0.666 0.032,-0.672 0.032,-0.682C0.032,-0.688 0.033,-0.692 0.037,-0.695C0.041,-0.698 0.046,-0.7 0.053,-0.7L0.291,-0.7C0.298,-0.7 0.303,-0.698 0.306,-0.695C0.31,-0.692 0.312,-0.687 0.312,-0.682C0.312,-0.672 0.306,-0.666 0.296,-0.662L0.264,-0.655C0.256,-0.653 0.25,-0.65 0.247,-0.646C0.243,-0.642 0.242,-0.636 0.242,-0.629L0.242,-0.071Z" style="fill:rgb(152,128,67);fill-rule:nonzero;"/>
            </g>
            <g transform="matrix(101.739,0,0,101.739,8805.26,6173.07)">
                <path d="M0.361,-0.71C0.412,-0.71 0.459,-0.701 0.5,-0.684C0.543,-0.666 0.579,-0.642 0.609,-0.61C0.639,-0.578 0.662,-0.541 0.679,-0.497C0.695,-0.453 0.703,-0.406 0.703,-0.354C0.703,-0.299 0.695,-0.25 0.679,-0.205C0.663,-0.16 0.64,-0.122 0.61,-0.09C0.58,-0.058 0.545,-0.033 0.504,-0.016C0.463,0.002 0.418,0.01 0.369,0.011C0.317,0.01 0.271,0.002 0.229,-0.016C0.187,-0.033 0.151,-0.057 0.121,-0.089C0.091,-0.121 0.067,-0.159 0.051,-0.203C0.035,-0.247 0.027,-0.297 0.027,-0.35C0.027,-0.404 0.035,-0.452 0.051,-0.496C0.067,-0.54 0.09,-0.578 0.12,-0.61C0.15,-0.642 0.185,-0.666 0.226,-0.684C0.267,-0.701 0.312,-0.71 0.361,-0.71ZM0.557,-0.267C0.557,-0.307 0.553,-0.346 0.546,-0.385C0.539,-0.424 0.529,-0.46 0.516,-0.494C0.503,-0.528 0.487,-0.558 0.469,-0.584C0.451,-0.609 0.43,-0.629 0.408,-0.644C0.386,-0.658 0.362,-0.666 0.336,-0.666C0.304,-0.666 0.275,-0.656 0.251,-0.638C0.226,-0.62 0.207,-0.593 0.193,-0.559C0.179,-0.525 0.172,-0.483 0.172,-0.435C0.172,-0.394 0.175,-0.354 0.183,-0.315C0.19,-0.276 0.2,-0.24 0.213,-0.206C0.226,-0.172 0.242,-0.142 0.26,-0.116C0.278,-0.09 0.299,-0.07 0.321,-0.056C0.344,-0.041 0.368,-0.034 0.393,-0.034C0.426,-0.034 0.455,-0.043 0.48,-0.061C0.504,-0.079 0.523,-0.105 0.537,-0.14C0.55,-0.175 0.557,-0.217 0.557,-0.267Z" style="fill:rgb(152,128,67);fill-rule:nonzero;"/>
            </g>
            <g transform="matrix(101.739,0,0,101.739,8879.74,6173.07)">
                <path d="M0.13,-0.7L0.495,-0.7C0.504,-0.7 0.512,-0.701 0.519,-0.704C0.526,-0.707 0.532,-0.709 0.538,-0.712C0.543,-0.715 0.548,-0.716 0.553,-0.716C0.56,-0.716 0.566,-0.714 0.57,-0.71C0.574,-0.706 0.577,-0.698 0.579,-0.687L0.61,-0.527C0.612,-0.519 0.611,-0.513 0.609,-0.508C0.607,-0.503 0.603,-0.5 0.597,-0.499C0.592,-0.498 0.587,-0.499 0.583,-0.501C0.579,-0.503 0.576,-0.508 0.573,-0.515C0.557,-0.556 0.542,-0.586 0.529,-0.607C0.516,-0.628 0.502,-0.642 0.489,-0.65C0.476,-0.657 0.462,-0.661 0.447,-0.661L0.383,-0.661L0.383,-0.07C0.383,-0.064 0.384,-0.058 0.388,-0.054C0.392,-0.05 0.397,-0.047 0.405,-0.045L0.442,-0.039C0.452,-0.035 0.457,-0.028 0.457,-0.019C0.457,-0.006 0.45,-0 0.436,-0L0.19,-0C0.183,-0 0.178,-0.002 0.174,-0.005C0.17,-0.008 0.169,-0.013 0.169,-0.019C0.169,-0.028 0.174,-0.035 0.184,-0.039L0.221,-0.045C0.228,-0.047 0.234,-0.05 0.237,-0.054C0.241,-0.058 0.243,-0.064 0.243,-0.07L0.243,-0.661L0.177,-0.661C0.162,-0.661 0.148,-0.657 0.136,-0.649C0.123,-0.641 0.11,-0.627 0.097,-0.606C0.083,-0.585 0.069,-0.555 0.053,-0.515C0.05,-0.508 0.046,-0.503 0.042,-0.501C0.038,-0.499 0.033,-0.498 0.028,-0.499C0.023,-0.5 0.019,-0.503 0.017,-0.508C0.014,-0.513 0.014,-0.519 0.016,-0.527L0.046,-0.688C0.048,-0.698 0.051,-0.706 0.056,-0.71C0.059,-0.714 0.065,-0.717 0.072,-0.717C0.077,-0.717 0.082,-0.715 0.087,-0.713C0.093,-0.71 0.099,-0.707 0.106,-0.704C0.113,-0.701 0.121,-0.7 0.13,-0.7Z" style="fill:rgb(152,128,67);fill-rule:nonzero;"/>
            </g>
            <g transform="matrix(3.43061,0,0,3.43061,-21274.4,-14030)">
                <g transform="matrix(15.1781,0,0,15.1781,8745.37,5820.32)">
                    <path d="M0.282,-0.45C0.321,-0.45 0.353,-0.441 0.379,-0.424C0.405,-0.407 0.425,-0.383 0.437,-0.353C0.449,-0.322 0.452,-0.287 0.447,-0.247C0.443,-0.211 0.434,-0.177 0.421,-0.146C0.408,-0.115 0.39,-0.088 0.368,-0.065C0.345,-0.042 0.319,-0.024 0.289,-0.011C0.258,0.002 0.224,0.009 0.186,0.009C0.149,0.009 0.117,0.001 0.091,-0.016C0.064,-0.032 0.044,-0.055 0.032,-0.085C0.019,-0.115 0.015,-0.151 0.02,-0.192C0.024,-0.229 0.033,-0.263 0.047,-0.295C0.06,-0.326 0.078,-0.354 0.101,-0.377C0.123,-0.4 0.15,-0.418 0.18,-0.431C0.211,-0.444 0.245,-0.45 0.282,-0.45ZM0.192,-0.031C0.204,-0.031 0.216,-0.036 0.228,-0.047C0.24,-0.058 0.251,-0.073 0.262,-0.092C0.273,-0.111 0.283,-0.132 0.292,-0.155C0.301,-0.178 0.309,-0.201 0.315,-0.226C0.321,-0.251 0.326,-0.274 0.328,-0.297C0.332,-0.324 0.332,-0.345 0.328,-0.362C0.324,-0.378 0.318,-0.39 0.309,-0.398C0.3,-0.406 0.29,-0.41 0.278,-0.41C0.266,-0.411 0.254,-0.406 0.242,-0.395C0.23,-0.384 0.218,-0.369 0.206,-0.35C0.195,-0.331 0.185,-0.31 0.175,-0.287C0.166,-0.264 0.158,-0.24 0.152,-0.215C0.146,-0.19 0.141,-0.166 0.139,-0.142C0.135,-0.115 0.135,-0.093 0.139,-0.077C0.143,-0.06 0.15,-0.048 0.159,-0.041C0.169,-0.034 0.18,-0.031 0.192,-0.031Z" style="fill:rgb(152,128,67);fill-rule:nonzero;"/>
                </g>
                <g transform="matrix(15.1781,0,0,15.1781,8752.41,5820.32)">
                    <path d="M0.186,-0.388L0.2,-0.432L0.3,-0.432C0.307,-0.432 0.313,-0.431 0.317,-0.428C0.321,-0.426 0.324,-0.421 0.324,-0.415C0.324,-0.41 0.322,-0.405 0.319,-0.401C0.315,-0.397 0.311,-0.394 0.305,-0.392C0.3,-0.389 0.294,-0.388 0.287,-0.388L0.186,-0.388ZM0.052,-0.414C0.052,-0.42 0.054,-0.424 0.058,-0.428C0.062,-0.431 0.068,-0.433 0.075,-0.433L0.128,-0.433L0.167,-0.57C0.182,-0.624 0.203,-0.664 0.23,-0.689C0.258,-0.714 0.293,-0.727 0.335,-0.727C0.358,-0.727 0.376,-0.721 0.389,-0.71C0.402,-0.699 0.408,-0.686 0.408,-0.67C0.408,-0.655 0.403,-0.643 0.393,-0.633C0.382,-0.624 0.368,-0.619 0.351,-0.619C0.341,-0.619 0.332,-0.621 0.324,-0.625C0.317,-0.629 0.31,-0.634 0.304,-0.639C0.298,-0.644 0.292,-0.649 0.286,-0.653C0.28,-0.657 0.274,-0.659 0.268,-0.659C0.258,-0.659 0.25,-0.655 0.243,-0.648C0.236,-0.641 0.23,-0.633 0.227,-0.622C0.225,-0.612 0.226,-0.602 0.23,-0.591C0.234,-0.58 0.238,-0.568 0.244,-0.555C0.25,-0.542 0.254,-0.529 0.257,-0.514C0.26,-0.499 0.259,-0.483 0.254,-0.466L0.12,0.029C0.117,0.038 0.115,0.047 0.114,0.054C0.113,0.061 0.113,0.068 0.113,0.074C0.113,0.083 0.115,0.09 0.119,0.095C0.123,0.1 0.128,0.105 0.132,0.11C0.137,0.115 0.139,0.12 0.139,0.127C0.139,0.137 0.133,0.146 0.122,0.155C0.111,0.164 0.097,0.172 0.079,0.178C0.061,0.184 0.042,0.187 0.022,0.187C0,0.187 -0.013,0.179 -0.018,0.164C-0.023,0.149 -0.022,0.127 -0.014,0.096L0.105,-0.336C0.11,-0.354 0.11,-0.368 0.105,-0.376C0.1,-0.385 0.088,-0.391 0.069,-0.394C0.063,-0.396 0.058,-0.399 0.056,-0.403C0.053,-0.406 0.052,-0.41 0.052,-0.414Z" style="fill:rgb(152,128,67);fill-rule:nonzero;"/>
                </g>
            </g>
        </g>
    </g>
</svg>
